<?xml version="1.0" encoding="UTF-8"?>
<svg xmlns="http://www.w3.org/2000/svg" xmlns:xlink="http://www.w3.org/1999/xlink" width="337.5pt" height="149.999998pt" viewBox="0 0 337.5 149.999998" version="1.2">
<defs>
<clipPath id="clip1">
  <path d="M 3.078125 15.109375 L 334.578125 15.109375 L 334.578125 135.859375 L 3.078125 135.859375 Z M 3.078125 15.109375 "/>
</clipPath>
</defs>
<g id="surface1">
<g clip-path="url(#clip1)" clip-rule="nonzero">
<path style=" stroke:none;fill-rule:nonzero;fill:rgb(70.588684%,83.918762%,82.749939%);fill-opacity:1;" d="M 327.003906 16.007812 C 311.605469 15.804688 296.199219 14.957031 280.8125 15.28125 C 250.101562 15.933594 219.621094 19.589844 190.800781 30.4375 C 183.144531 33.316406 176 34.78125 168.828125 34.8125 C 161.652344 34.78125 154.511719 33.316406 146.851562 30.4375 C 118.03125 19.589844 87.550781 15.933594 56.839844 15.28125 C 41.457031 14.957031 26.050781 15.804688 10.652344 16.007812 C 5.359375 16.074219 2.949219 18.023438 3.082031 23.765625 C 3.242188 30.789062 5.046875 36.707031 8.035156 43.296875 C 13.179688 54.648438 13.984375 67.128906 16.527344 79.457031 C 20.222656 97.367188 23.871094 109.6875 41.769531 123.882812 C 58.640625 137.714844 127.59375 152.050781 148.953125 88.363281 C 153.332031 73.679688 153.847656 72.757812 156.398438 64.992188 C 158.257812 59.339844 162.613281 57.207031 168.265625 57.058594 C 168.429688 57.054688 168.59375 57.0625 168.757812 57.066406 L 168.757812 57.070312 C 168.78125 57.070312 168.804688 57.070312 168.828125 57.070312 C 168.851562 57.070312 168.875 57.070312 168.898438 57.070312 L 168.898438 57.066406 C 169.058594 57.066406 169.222656 57.054688 169.390625 57.058594 C 175.039062 57.207031 179.398438 59.339844 181.253906 64.992188 C 183.804688 72.757812 184.320312 73.679688 188.699219 88.363281 C 210.058594 152.050781 279.011719 137.714844 295.882812 123.882812 C 313.78125 109.6875 317.429688 97.367188 321.125 79.457031 C 323.667969 67.128906 324.472656 54.648438 329.621094 43.296875 C 332.605469 36.707031 334.410156 30.789062 334.570312 23.765625 C 334.703125 18.023438 332.296875 16.074219 327.003906 16.007812 Z M 144.070312 66.339844 C 142.738281 81.746094 126.214844 144.722656 62.421875 125.714844 C 35.574219 117.242188 14.460938 78.082031 29.378906 47.855469 C 44.292969 17.625 98.035156 26.882812 119.671875 33.082031 C 135.878906 37.71875 144.777344 49.703125 144.070312 66.339844 Z M 275.230469 125.714844 C 211.4375 144.722656 194.914062 81.746094 193.582031 66.339844 C 192.878906 49.703125 201.773438 37.71875 217.980469 33.082031 C 239.617188 26.882812 293.359375 17.625 308.273438 47.855469 C 323.191406 78.082031 302.078125 117.242188 275.230469 125.714844 Z M 275.230469 125.714844 "/>
</g>
<path style=" stroke:none;fill-rule:nonzero;fill:rgb(100%,100%,100%);fill-opacity:1;" d="M 18.71875 26.328125 C 18.71875 26.695312 18.648438 27.050781 18.503906 27.394531 C 18.363281 27.734375 18.160156 28.035156 17.898438 28.296875 C 17.636719 28.558594 17.335938 28.761719 16.996094 28.902344 C 16.652344 29.042969 16.296875 29.113281 15.925781 29.113281 C 15.554688 29.113281 15.199219 29.042969 14.859375 28.902344 C 14.515625 28.761719 14.214844 28.558594 13.953125 28.296875 C 13.691406 28.035156 13.488281 27.734375 13.347656 27.394531 C 13.207031 27.050781 13.136719 26.695312 13.136719 26.328125 C 13.136719 25.957031 13.207031 25.601562 13.347656 25.261719 C 13.488281 24.921875 13.691406 24.621094 13.953125 24.359375 C 14.214844 24.097656 14.515625 23.894531 14.859375 23.753906 C 15.199219 23.613281 15.554688 23.542969 15.925781 23.542969 C 16.296875 23.542969 16.652344 23.613281 16.996094 23.753906 C 17.335938 23.894531 17.636719 24.097656 17.898438 24.359375 C 18.160156 24.621094 18.363281 24.921875 18.503906 25.261719 C 18.648438 25.601562 18.71875 25.957031 18.71875 26.328125 Z M 18.71875 26.328125 "/>
<path style=" stroke:none;fill-rule:nonzero;fill:rgb(100%,100%,100%);fill-opacity:1;" d="M 18.71875 35.183594 C 18.71875 35.554688 18.648438 35.910156 18.503906 36.25 C 18.363281 36.589844 18.160156 36.890625 17.898438 37.152344 C 17.636719 37.414062 17.335938 37.617188 16.996094 37.757812 C 16.652344 37.898438 16.296875 37.96875 15.925781 37.96875 C 15.554688 37.96875 15.199219 37.898438 14.859375 37.757812 C 14.515625 37.617188 14.214844 37.414062 13.953125 37.152344 C 13.691406 36.890625 13.488281 36.589844 13.347656 36.25 C 13.207031 35.910156 13.136719 35.554688 13.136719 35.183594 C 13.136719 34.816406 13.207031 34.460938 13.347656 34.117188 C 13.488281 33.777344 13.691406 33.476562 13.953125 33.214844 C 14.214844 32.953125 14.515625 32.75 14.859375 32.609375 C 15.199219 32.46875 15.554688 32.398438 15.925781 32.398438 C 16.296875 32.398438 16.652344 32.46875 16.996094 32.609375 C 17.335938 32.75 17.636719 32.953125 17.898438 33.214844 C 18.160156 33.476562 18.363281 33.777344 18.503906 34.117188 C 18.648438 34.460938 18.71875 34.816406 18.71875 35.183594 Z M 18.71875 35.183594 "/>
<path style=" stroke:none;fill-rule:nonzero;fill:rgb(100%,100%,100%);fill-opacity:1;" d="M 324.375 26.328125 C 324.375 26.695312 324.304688 27.050781 324.164062 27.394531 C 324.023438 27.734375 323.820312 28.035156 323.558594 28.296875 C 323.296875 28.558594 322.996094 28.761719 322.652344 28.902344 C 322.3125 29.042969 321.957031 29.113281 321.585938 29.113281 C 321.214844 29.113281 320.859375 29.042969 320.515625 28.902344 C 320.175781 28.761719 319.875 28.558594 319.613281 28.296875 C 319.351562 28.035156 319.148438 27.734375 319.007812 27.394531 C 318.863281 27.050781 318.792969 26.695312 318.792969 26.328125 C 318.792969 25.957031 318.863281 25.601562 319.007812 25.261719 C 319.148438 24.921875 319.351562 24.621094 319.613281 24.359375 C 319.875 24.097656 320.175781 23.894531 320.515625 23.753906 C 320.859375 23.613281 321.214844 23.542969 321.585938 23.542969 C 321.957031 23.542969 322.3125 23.613281 322.652344 23.753906 C 322.996094 23.894531 323.296875 24.097656 323.558594 24.359375 C 323.820312 24.621094 324.023438 24.921875 324.164062 25.261719 C 324.304688 25.601562 324.375 25.957031 324.375 26.328125 Z M 324.375 26.328125 "/>
<path style=" stroke:none;fill-rule:nonzero;fill:rgb(100%,100%,100%);fill-opacity:1;" d="M 324.375 35.183594 C 324.375 35.554688 324.304688 35.910156 324.164062 36.25 C 324.023438 36.589844 323.820312 36.890625 323.558594 37.152344 C 323.296875 37.414062 322.996094 37.617188 322.652344 37.757812 C 322.3125 37.898438 321.957031 37.96875 321.585938 37.96875 C 321.214844 37.96875 320.859375 37.898438 320.515625 37.757812 C 320.175781 37.617188 319.875 37.414062 319.613281 37.152344 C 319.351562 36.890625 319.148438 36.589844 319.007812 36.25 C 318.863281 35.910156 318.792969 35.554688 318.792969 35.183594 C 318.792969 34.816406 318.863281 34.460938 319.007812 34.117188 C 319.148438 33.777344 319.351562 33.476562 319.613281 33.214844 C 319.875 32.953125 320.175781 32.75 320.515625 32.609375 C 320.859375 32.46875 321.214844 32.398438 321.585938 32.398438 C 321.957031 32.398438 322.3125 32.46875 322.652344 32.609375 C 322.996094 32.75 323.296875 32.953125 323.558594 33.214844 C 323.820312 33.476562 324.023438 33.777344 324.164062 34.117188 C 324.304688 34.460938 324.375 34.816406 324.375 35.183594 Z M 324.375 35.183594 "/>
</g>
</svg>
