<?xml version="1.0" encoding="UTF-8"?>
<svg xmlns="http://www.w3.org/2000/svg" xmlns:xlink="http://www.w3.org/1999/xlink" width="832.5pt" height="449.999984pt" viewBox="0 0 832.5 449.999984" version="1.2">
<defs>
<clipPath id="clip1">
  <path d="M 0 0.136719 L 832 0.136719 L 832 449.863281 L 0 449.863281 Z M 0 0.136719 "/>
</clipPath>
<clipPath id="clip2">
  <path d="M 330.199219 149 L 832 149 L 832 447 L 330.199219 447 Z M 330.199219 149 "/>
</clipPath>
<clipPath id="clip3">
  <path d="M 456 287 L 714 287 L 714 446.714844 L 456 446.714844 Z M 456 287 "/>
</clipPath>
<clipPath id="clip4">
  <path d="M 220.417969 2 L 516.667969 2 L 516.667969 226 L 220.417969 226 Z M 220.417969 2 "/>
</clipPath>
<clipPath id="clip5">
  <path d="M 477 246 L 497 246 L 497 266.570312 L 477 266.570312 Z M 477 246 "/>
</clipPath>
<clipPath id="clip6">
  <path d="M 359 134 L 439 134 L 439 178.898438 L 359 178.898438 Z M 359 134 "/>
</clipPath>
<clipPath id="clip7">
  <path d="M 377 57 L 434 57 L 434 79.636719 L 377 79.636719 Z M 377 57 "/>
</clipPath>
<clipPath id="clip8">
  <path d="M 400 45.136719 L 421 45.136719 L 421 79.636719 L 400 79.636719 Z M 400 45.136719 "/>
</clipPath>
<clipPath id="clip9">
  <path d="M 377 57 L 397 57 L 397 79.636719 L 377 79.636719 Z M 377 57 "/>
</clipPath>
<clipPath id="clip10">
  <path d="M 355.050781 57 L 442 57 L 442 79.636719 L 355.050781 79.636719 Z M 355.050781 57 "/>
</clipPath>
<clipPath id="clip11">
  <path d="M 260 71 L 330.488281 71 L 330.488281 133.523438 L 260 133.523438 Z M 260 71 "/>
</clipPath>
<clipPath id="clip12">
  <path d="M 259.988281 70.710938 L 330.488281 70.710938 L 330.488281 133.523438 L 259.988281 133.523438 Z M 259.988281 70.710938 "/>
</clipPath>
<clipPath id="clip13">
  <path d="M 559.015625 195.335938 L 610.015625 195.335938 L 610.015625 214.085938 L 559.015625 214.085938 Z M 559.015625 195.335938 "/>
</clipPath>
</defs>
<g id="surface1">
<g clip-path="url(#clip1)" clip-rule="nonzero">
<path style=" stroke:none;fill-rule:nonzero;fill:rgb(100%,100%,100%);fill-opacity:1;" d="M 0 0.136719 L 832.5 0.136719 L 832.5 457.636719 L 0 457.636719 Z M 0 0.136719 "/>
<path style=" stroke:none;fill-rule:nonzero;fill:rgb(100%,100%,100%);fill-opacity:1;" d="M 0 0.136719 L 832.5 0.136719 L 832.5 450.136719 L 0 450.136719 Z M 0 0.136719 "/>
<path style=" stroke:none;fill-rule:nonzero;fill:rgb(70.588684%,83.918762%,82.749939%);fill-opacity:1;" d="M 0 0.136719 L 832.5 0.136719 L 832.5 450.136719 L 0 450.136719 Z M 0 0.136719 "/>
</g>
<g clip-path="url(#clip2)" clip-rule="nonzero">
<path style=" stroke:none;fill-rule:nonzero;fill:rgb(98.81897%,85.488892%,89.019775%);fill-opacity:1;" d="M 655.515625 365.867188 C 657.125 362.835938 640.570312 358.410156 634.65625 355.859375 C 634.65625 355.859375 622.542969 336.328125 621.597656 326.074219 C 620.90625 319.949219 622.898438 299.535156 623.898438 290.082031 C 623.898438 290.082031 626.121094 300.265625 629.519531 304.601562 C 630.855469 303.761719 632.527344 302.636719 634.390625 301.320312 C 634.613281 301.902344 634.765625 302.285156 634.765625 302.285156 C 634.765625 302.285156 636.5 308.789062 637.4375 311.898438 C 640.523438 322.167969 643.441406 331.867188 649.027344 342.035156 C 653.570312 350.304688 661.589844 358.113281 669.574219 365.316406 C 669.855469 365.574219 670.140625 365.824219 670.421875 366.078125 C 665.460938 366.019531 660.488281 365.949219 655.515625 365.867188 Z M 546.292969 325.433594 C 542.195312 340.195312 532.558594 355.347656 532.558594 355.347656 C 532.558594 355.347656 532.558594 355.347656 532.554688 355.347656 C 529.871094 356.480469 517.414062 359.945312 520.265625 361.582031 C 520.265625 361.582031 520.265625 361.585938 520.265625 361.585938 C 521.148438 361.917969 522.035156 362.269531 522.921875 362.625 C 517.335938 362.484375 511.761719 362.355469 506.183594 362.226562 C 506.496094 361.976562 506.808594 361.726562 507.117188 361.472656 C 513.085938 356.628906 519.667969 350.800781 523.222656 344.328125 C 528.800781 334.175781 531.722656 324.46875 534.8125 314.1875 C 536.414062 308.867188 537.265625 304.324219 537.816406 300.863281 L 538.105469 299.863281 L 542.964844 302.761719 L 546.304688 291.347656 C 546.667969 300.65625 547.347656 321.453125 546.292969 325.433594 Z M 563.484375 171.300781 C 561.722656 170.871094 561.691406 169.015625 562.964844 168.058594 C 565.8125 170.023438 569.445312 170.167969 572.757812 169.609375 C 572.804688 169.628906 572.851562 169.652344 572.898438 169.675781 C 569.761719 170.554688 566.878906 172.136719 563.484375 171.300781 Z M 562.058594 166.304688 C 560.28125 164.574219 563.984375 165.210938 564.261719 165.269531 C 565.601562 165.539062 566.90625 166.011719 568.175781 166.503906 C 568.847656 166.773438 569.476562 167.113281 570.089844 167.472656 C 568.683594 167.019531 567.207031 166.757812 565.980469 166.671875 C 565.226562 166.621094 564.039062 166.734375 562.980469 167.101562 C 562.660156 166.859375 562.351562 166.597656 562.058594 166.304688 Z M 571.195312 168.9375 C 568.9375 168.96875 566.882812 169.019531 564.496094 168.003906 C 564.238281 167.894531 563.996094 167.765625 563.761719 167.628906 C 565.175781 167.132812 566.832031 167.632812 568.203125 167.980469 C 569.261719 168.25 570.238281 168.566406 571.195312 168.9375 Z M 787.339844 364.894531 C 758.4375 366.042969 729.109375 366.414062 699.550781 366.320312 C 699.472656 366.207031 699.378906 366.078125 699.242188 365.917969 C 698.679688 365.3125 697.480469 364.984375 695.855469 364.984375 C 693.65625 364.984375 691.207031 365.582031 689.675781 366.265625 C 688.738281 366.261719 687.800781 366.253906 686.867188 366.246094 C 683.871094 362.410156 680.472656 357.785156 677.183594 353.300781 C 673.792969 348.675781 670.28125 343.894531 667.257812 340.035156 C 662.613281 334.421875 660.605469 325.035156 659.140625 318.171875 C 658.878906 316.9375 658.636719 315.800781 658.414062 314.835938 C 657.507812 311.460938 656.835938 308.800781 656.226562 306.363281 C 655.101562 301.894531 654.128906 298.03125 652.183594 291.675781 C 651.953125 290.855469 651.515625 289.328125 651.515625 289.328125 L 651.273438 288.207031 C 654.644531 285.300781 657.519531 282.550781 659.222656 280.425781 C 649.160156 268.8125 638.140625 254.992188 623.027344 250.535156 C 618.914062 249.324219 612.191406 248.800781 607.882812 249.207031 L 606.402344 249.238281 C 601.640625 248.652344 594.9375 247 594.34375 242.34375 C 593.722656 237.433594 593.679688 231.113281 593.707031 227.777344 L 593.710938 227.539062 L 593.898438 227.390625 C 598.300781 223.9375 601.296875 217.730469 602.328125 209.917969 L 602.359375 209.691406 L 602.554688 209.566406 C 604.550781 208.261719 607.421875 204.609375 607.148438 202.425781 C 607.046875 201.636719 606.539062 201.097656 605.582031 200.769531 C 605.507812 200.746094 605.414062 200.730469 605.28125 200.710938 C 605.21875 200.703125 605.15625 200.695312 605.097656 200.695312 C 604.535156 200.695312 603.976562 201.070312 603.554688 201.722656 L 603.476562 201.847656 L 603.34375 201.90625 C 602.90625 202.105469 602.449219 202.214844 601.980469 202.28125 C 606.261719 200.464844 607.515625 195.058594 607.207031 190.316406 C 606.640625 181.652344 601.058594 171.945312 591.789062 170.371094 C 592.03125 170.078125 592.179688 169.742188 592.179688 169.328125 C 592.175781 169.054688 591.84375 168.921875 591.652344 169.109375 C 591.230469 169.511719 590.722656 169.847656 590.15625 170.136719 L 589.820312 170.097656 L 590.59375 169.355469 C 591.042969 168.925781 591.453125 168.445312 591.84375 167.945312 C 592.34375 167.664062 592.851562 167.375 593.324219 167.058594 C 593.742188 166.785156 593.382812 166.167969 592.929688 166.390625 C 592.914062 166.398438 592.898438 166.40625 592.882812 166.410156 C 594.242188 164.121094 595.015625 161.464844 594.894531 159.089844 C 594.765625 156.539062 593.664062 154.382812 591.710938 152.855469 C 589.351562 150.984375 586.171875 149.953125 582.765625 149.953125 C 578.636719 149.953125 574.886719 151.496094 573 153.972656 C 571.03125 156.78125 570.4375 163.09375 572.332031 167.0625 C 572.210938 166.964844 572.089844 166.871094 571.972656 166.765625 C 571.804688 166.59375 571.625 166.417969 571.488281 166.226562 C 571.453125 166.171875 571.398438 166.144531 571.339844 166.132812 C 571.199219 165.972656 571.058594 165.8125 570.925781 165.632812 C 569.640625 163.902344 569.457031 161.757812 569.6875 159.683594 C 569.75 159.183594 568.96875 159.191406 568.90625 159.683594 C 568.597656 162.171875 569.238281 164.96875 570.761719 167.039062 C 569.527344 166.320312 568.21875 165.722656 566.835938 165.238281 C 565.308594 164.703125 562.769531 163.695312 561.203125 164.605469 C 559.988281 165.316406 561.285156 166.707031 562.15625 167.460938 C 561.320312 167.917969 560.710938 168.59375 560.730469 169.554688 C 560.777344 171.734375 563.398438 172.296875 565.167969 172.417969 C 566.847656 172.527344 568.757812 172.160156 570.542969 171.558594 C 569.78125 172.242188 568.976562 172.859375 568.0625 173.363281 C 566.464844 174.246094 564.695312 174.425781 562.964844 174.886719 C 562.757812 174.941406 562.820312 175.21875 563.015625 175.238281 C 566.503906 175.613281 569.839844 173.597656 572.011719 171.003906 C 572.5625 170.765625 573.074219 170.511719 573.566406 170.246094 C 573.675781 170.34375 573.800781 170.429688 573.917969 170.523438 C 563.0625 176.4375 559 186.675781 559.839844 193.746094 C 560.230469 197.03125 561.59375 199.722656 563.738281 201.597656 C 563.683594 201.613281 563.628906 201.628906 563.570312 201.652344 C 563.394531 201.71875 563.242188 201.796875 563.097656 201.878906 C 562.472656 202.238281 562.144531 202.734375 562.09375 203.386719 C 561.953125 205.222656 564.03125 208.035156 566.113281 209.699219 L 566.277344 209.824219 L 566.300781 210.03125 C 567.425781 219.226562 571.363281 226.113281 577.105469 228.929688 L 577.378906 229.066406 L 577.386719 229.371094 C 577.441406 232.953125 577.519531 239.476562 577.417969 242.921875 C 577.304688 246.890625 569.140625 249.136719 564.394531 250.113281 L 561.140625 250.183594 C 555.027344 249.867188 545.675781 251.390625 540.113281 254.09375 C 524.222656 264.28125 511.410156 283.953125 511.410156 283.953125 L 521.074219 289.710938 L 520.859375 290.753906 C 520.617188 291.878906 520.355469 292.933594 520.050781 293.996094 C 518.117188 300.320312 517.144531 304.179688 516.019531 308.648438 C 515.40625 311.089844 514.738281 313.75 513.84375 317.101562 C 513.609375 318.089844 513.371094 319.226562 513.105469 320.453125 C 511.640625 327.316406 509.640625 336.71875 505.011719 342.316406 C 501.925781 346.246094 497.742188 350.753906 493.703125 355.113281 C 491.632812 357.335938 489.515625 359.625 487.550781 361.820312 C 457.894531 361.230469 428.464844 360.886719 399.464844 361.128906 C 382.582031 369.234375 345.125 421.335938 330.277344 434.40625 C 342.265625 437.292969 356.207031 435.1875 368.171875 435.085938 C 411.046875 435.726562 453.960938 440.355469 495.847656 442 C 601.574219 447.101562 728.222656 450.039062 832.832031 440.210938 C 820.648438 413.421875 799.527344 391.683594 787.339844 364.894531 "/>
</g>
<path style=" stroke:none;fill-rule:nonzero;fill:rgb(93.328857%,66.668701%,58.039856%);fill-opacity:1;" d="M 402.761719 361.109375 C 393.066406 372.050781 383.453125 383.0625 373.929688 394.160156 C 367.300781 401.878906 360.570312 409.554688 354.371094 417.621094 C 349.644531 423.765625 345.039062 430.011719 339.878906 435.757812 C 340.070312 435.773438 340.265625 435.78125 340.457031 435.789062 C 340.589844 435.796875 340.714844 435.800781 340.839844 435.808594 C 344.960938 431.269531 348.738281 426.414062 352.511719 421.546875 C 359.09375 413.058594 366.152344 404.972656 373.148438 396.832031 C 383.460938 384.839844 393.921875 372.976562 404.371094 361.101562 C 403.988281 361.101562 403.609375 361.105469 403.222656 361.105469 C 403.070312 361.109375 402.914062 361.109375 402.761719 361.109375 "/>
<path style=" stroke:none;fill-rule:nonzero;fill:rgb(93.328857%,66.668701%,58.039856%);fill-opacity:1;" d="M 806.195312 406.757812 C 798.707031 392.703125 788.050781 380.007812 782.367188 365.074219 C 782.324219 365.074219 782.28125 365.078125 782.238281 365.078125 C 781.953125 365.089844 781.667969 365.097656 781.382812 365.109375 C 786.539062 379.601562 796.71875 391.808594 803.941406 405.34375 C 810.210938 417.09375 816.039062 429.402344 822.707031 441.117188 C 823.476562 441.050781 824.234375 440.980469 825.003906 440.914062 C 818.675781 429.5625 812.3125 418.234375 806.195312 406.757812 "/>
<path style=" stroke:none;fill-rule:nonzero;fill:rgb(93.328857%,66.668701%,58.039856%);fill-opacity:1;" d="M 460.703125 361.355469 C 452.789062 372.941406 445.828125 385.207031 439.339844 397.585938 C 432.632812 410.386719 426.035156 423.726562 420.5 437.386719 C 421.175781 437.429688 421.847656 437.46875 422.523438 437.515625 C 433.347656 411.027344 445.46875 384.816406 461.734375 361.371094 C 461.390625 361.367188 461.042969 361.363281 460.703125 361.355469 "/>
<path style=" stroke:none;fill-rule:nonzero;fill:rgb(93.328857%,66.668701%,58.039856%);fill-opacity:1;" d="M 732.21875 378.644531 C 730.492188 374.480469 728.640625 370.394531 726.898438 366.261719 C 726.503906 366.265625 726.109375 366.269531 725.714844 366.269531 C 725.589844 366.269531 725.460938 366.269531 725.335938 366.273438 C 726.535156 369.230469 727.828125 372.15625 729.105469 375.085938 C 733.132812 384.355469 735.816406 393.941406 738.410156 403.6875 C 742.101562 417.574219 745.308594 431.570312 749.128906 445.414062 C 749.570312 445.398438 750.023438 445.386719 750.46875 445.367188 C 746.941406 431.339844 743.636719 417.253906 739.9375 403.269531 C 737.738281 394.949219 735.511719 386.605469 732.21875 378.644531 "/>
<g clip-path="url(#clip3)" clip-rule="nonzero">
<path style=" stroke:none;fill-rule:nonzero;fill:rgb(93.328857%,66.668701%,58.039856%);fill-opacity:1;" d="M 707.339844 381.761719 C 704.5625 380.890625 701.816406 379.066406 699.839844 377.3125 C 701.738281 377.386719 705.132812 377.40625 706.582031 375.859375 C 709.085938 372.632812 703.871094 364.800781 702.15625 369.40625 C 701.410156 371.789062 703.792969 372.535156 700.480469 373.070312 C 698.300781 373.605469 696.046875 372.457031 694.988281 370.554688 C 691.949219 365.421875 701.714844 369.015625 700.695312 366.320312 C 700.585938 366.035156 700.359375 365.675781 699.980469 365.234375 C 697.703125 362.773438 690.175781 364.394531 687.996094 366.0625 C 681.878906 358.269531 674.144531 347.191406 668.03125 339.394531 C 662.699219 332.953125 660.867188 320.867188 659.386719 314.578125 C 656.792969 304.886719 656.140625 301.15625 653.15625 291.402344 C 652.761719 290.011719 652.398438 288.738281 652.046875 287.535156 C 646.347656 292.53125 639.015625 298.109375 633.621094 301.863281 C 634.417969 304.980469 635.316406 308.347656 636.476562 312.183594 C 639.765625 323.136719 642.683594 332.570312 648.148438 342.519531 C 652.789062 350.96875 661.050781 358.976562 668.898438 366.0625 C 671.941406 368.804688 674.921875 371.410156 677.609375 373.847656 L 677.644531 373.824219 C 677.722656 376.90625 681.585938 379.828125 683.679688 381.210938 C 685.890625 382.703125 687.851562 384.15625 689.601562 385.824219 C 681.019531 380.636719 671.183594 374.605469 661.015625 368.929688 C 660.730469 367.933594 660.441406 366.933594 660.144531 365.9375 C 660.136719 365.9375 660.132812 365.9375 660.125 365.9375 C 659.816406 365.933594 659.515625 365.929688 659.210938 365.925781 C 659.433594 366.710938 659.644531 367.507812 659.863281 368.300781 C 658.421875 367.515625 656.886719 366.730469 655.273438 365.953125 C 641.933594 368.59375 628.769531 374.074219 618.027344 382.25 C 620.515625 381.679688 623.035156 381.179688 625.589844 380.882812 C 628.433594 380.574219 631.238281 380.511719 634.0625 380.3125 C 636.890625 380.210938 639.714844 380.035156 642.542969 379.996094 L 646.78125 379.898438 L 651.027344 379.886719 C 656.675781 379.855469 662.359375 380.105469 667.976562 380.734375 C 670.792969 381.011719 673.597656 381.390625 676.390625 381.882812 C 679.171875 382.410156 681.949219 383.050781 684.605469 384.019531 C 681.859375 383.332031 679.085938 382.828125 676.304688 382.40625 C 673.515625 381.964844 670.71875 381.664062 667.910156 381.371094 C 662.300781 380.753906 656.671875 380.511719 651.023438 380.554688 L 646.789062 380.566406 L 642.5625 380.671875 C 639.738281 380.714844 636.925781 380.894531 634.105469 381.003906 C 631.296875 381.199219 628.4375 381.273438 625.671875 381.582031 C 622.882812 381.90625 620.128906 382.480469 617.386719 383.128906 C 614.644531 383.777344 611.90625 384.492188 609.136719 385.097656 C 606.378906 385.722656 603.554688 386.191406 600.726562 386.421875 C 597.910156 386.6875 595.089844 386.960938 592.269531 387.085938 C 589.457031 387.289062 586.59375 387.375 583.761719 387.242188 C 580.9375 387.078125 578.050781 386.878906 575.316406 385.820312 C 572.570312 384.714844 570.554688 382.585938 568.117188 381.316406 C 565.730469 379.972656 562.761719 379.769531 560.222656 380.769531 C 557.824219 381.710938 555.730469 383.421875 553.992188 385.34375 C 560.1875 386.871094 566.339844 388.59375 572.46875 390.410156 C 577.671875 391.949219 582.914062 393.378906 588.117188 394.9375 C 593.507812 396.554688 598.316406 398.558594 604.039062 398.136719 C 612.710938 397.492188 627.707031 393.875 631.671875 404.683594 C 631.699219 404.75 631.589844 404.796875 631.554688 404.730469 C 628.15625 397.804688 620.417969 397.046875 613.449219 397.695312 C 610.304688 397.996094 607.183594 398.511719 604.035156 398.742188 C 601.929688 398.898438 599.363281 399.28125 597.320312 398.609375 C 588.332031 395.660156 579.175781 393.242188 570.101562 390.585938 C 558.394531 387.164062 546.542969 383.988281 534.464844 382.164062 C 524.75 380.699219 514.6875 379.300781 504.84375 379.214844 C 504.546875 379.210938 504.566406 378.808594 504.84375 378.769531 C 508.9375 378.226562 513.195312 378.617188 517.285156 378.996094 C 523.507812 379.570312 529.691406 380.484375 535.851562 381.527344 C 541.714844 382.519531 547.515625 383.765625 553.277344 385.171875 C 553.984375 384.367188 554.738281 383.597656 555.558594 382.894531 C 545.363281 373.550781 532.710938 366.265625 520.265625 361.585938 C 519.640625 361.890625 519.019531 362.203125 518.402344 362.511719 C 517.59375 362.917969 516.789062 363.328125 515.992188 363.738281 C 505.722656 369.050781 496.40625 374.769531 490.28125 378.714844 C 491.289062 377.550781 492.027344 376.246094 492.0625 374.914062 L 492.097656 374.9375 C 496.5 370.945312 502.21875 366.75 507.753906 362.253906 C 514.316406 356.921875 520.609375 351.167969 524.105469 344.8125 C 529.566406 334.871094 532.484375 325.429688 535.777344 314.480469 C 537.375 309.160156 538.253906 304.597656 538.921875 300.347656 L 520.15625 289.167969 C 519.882812 290.589844 519.550781 292.089844 519.089844 293.699219 C 516.105469 303.453125 515.453125 307.179688 512.867188 316.875 C 511.386719 323.167969 509.554688 335.246094 504.222656 341.699219 C 499.441406 347.789062 492.121094 355.148438 486.230469 361.789062 C 484.585938 363.648438 483.046875 365.453125 481.707031 367.15625 C 479.527344 365.488281 469.742188 365 467.457031 367.457031 C 463.507812 372.101562 476.082031 367.550781 474.714844 371.652344 C 474.023438 373.714844 471.398438 374.699219 469.21875 374.160156 C 465.910156 373.632812 468.292969 372.882812 467.542969 370.5 C 465.832031 365.898438 460.617188 373.730469 463.117188 376.949219 C 464.566406 378.503906 467.960938 378.480469 469.863281 378.402344 C 467.882812 380.160156 465.144531 381.984375 462.359375 382.855469 C 461.140625 383.417969 455.660156 383.484375 456.074219 385.621094 C 456.984375 389.34375 470.167969 383.539062 471.847656 382.488281 C 470.585938 383.980469 468.789062 385.09375 466.828125 386 C 462.882812 387.820312 458.703125 388.84375 459.964844 390.757812 C 461.210938 392.65625 465.675781 390.441406 469.898438 388.175781 C 472.066406 387.007812 474.179688 385.828125 475.753906 385.183594 C 475.925781 388.792969 466.445312 391.457031 467.441406 393.839844 C 468.449219 396.265625 474.660156 392.230469 476.820312 390.40625 C 475.96875 393.558594 477.824219 396.402344 479.511719 399.773438 C 482.769531 406.292969 501.109375 407.011719 510.722656 407.246094 C 507.929688 418.722656 504.957031 430.480469 502.609375 442.320312 C 503.425781 442.359375 504.234375 442.398438 505.058594 442.433594 C 507.179688 430.683594 509.324219 418.9375 512.066406 407.277344 C 513.398438 407.308594 514.503906 407.335938 515.289062 407.375 C 537.035156 408.671875 558.65625 410.722656 580.355469 411.316406 C 580.128906 413.691406 579.894531 416.066406 579.660156 418.449219 C 578.777344 427.328125 577.917969 436.265625 577.335938 445.222656 C 577.417969 445.226562 577.5 445.230469 577.582031 445.230469 C 578.09375 445.246094 578.605469 445.261719 579.113281 445.277344 C 579.183594 445.277344 579.25 445.28125 579.320312 445.28125 C 579.8125 436.347656 580.511719 427.410156 581.351562 418.449219 C 581.574219 416.085938 581.804688 413.726562 582.039062 411.359375 C 587.023438 411.484375 592.003906 411.523438 596.996094 411.453125 C 604.578125 411.351562 616.796875 415.546875 623.214844 416.332031 C 626.175781 416.695312 632.667969 418.023438 634.417969 415.78125 C 635.800781 414.007812 633.503906 408.535156 631.96875 405.261719 C 633.617188 405.523438 635.269531 405.777344 636.933594 405.976562 C 637.273438 406.019531 637.613281 406.0625 637.957031 406.101562 C 644.816406 406.921875 651.714844 407.589844 658.601562 408.132812 C 658.789062 408.140625 658.96875 408.160156 659.152344 408.171875 C 660.917969 408.320312 664.273438 408.765625 668.265625 409.144531 C 670.070312 421.589844 671.308594 434.125 672.253906 446.710938 C 672.914062 446.710938 673.578125 446.710938 674.242188 446.710938 C 673.492188 434.214844 672.105469 421.703125 670.085938 409.304688 C 679.816406 410.136719 692.316406 410.351562 695.628906 405.503906 C 698.378906 401.492188 701.304688 398.390625 698.492188 393.566406 C 698.277344 393.210938 698.039062 392.859375 697.789062 392.511719 C 699.816406 393.519531 701.742188 394.007812 702.265625 392.75 C 703.257812 390.363281 693.777344 387.699219 693.949219 384.089844 C 695.523438 384.738281 697.632812 385.914062 699.800781 387.082031 C 704.03125 389.351562 708.496094 391.566406 709.734375 389.667969 C 710.996094 387.75 706.824219 386.730469 702.871094 384.90625 C 700.917969 384.003906 699.121094 382.890625 697.855469 381.398438 C 699.53125 382.449219 712.714844 388.25 713.628906 384.527344 C 714.039062 382.390625 708.5625 382.324219 707.339844 381.761719 "/>
</g>
<path style=" stroke:none;fill-rule:nonzero;fill:rgb(93.328857%,66.668701%,58.039856%);fill-opacity:1;" d="M 534.324219 352.414062 C 534.300781 352.449219 534.28125 352.488281 534.261719 352.519531 C 538.664062 353.359375 543.207031 353.613281 547.550781 354.824219 C 554.160156 356.671875 560.640625 359.578125 566.832031 362.480469 C 574.125 365.898438 580.253906 370.277344 588.601562 368.855469 C 598.703125 367.132812 607.125 360.503906 616.179688 356.207031 C 621.222656 353.8125 626.691406 352.628906 632.261719 351.808594 C 632.003906 351.351562 631.726562 350.855469 631.4375 350.339844 C 631.414062 350.304688 631.398438 350.273438 631.375 350.230469 C 628.445312 350.699219 625.535156 351.277344 622.640625 352.015625 C 612.101562 354.714844 603.652344 362.148438 593.554688 365.917969 C 581.835938 370.292969 573.710938 364.0625 563.226562 359.441406 C 553.769531 355.277344 544.625 353.199219 534.75 351.667969 C 534.601562 351.929688 534.460938 352.175781 534.324219 352.414062 "/>
<path style=" stroke:none;fill-rule:nonzero;fill:rgb(93.328857%,66.668701%,58.039856%);fill-opacity:1;" d="M 588.46875 359.015625 C 598.996094 357.929688 608.636719 351.839844 617.65625 346.851562 C 620.738281 345.148438 623.988281 343.730469 627.324219 342.496094 C 627.058594 341.945312 626.792969 341.390625 626.53125 340.832031 C 626.527344 340.828125 626.523438 340.824219 626.523438 340.816406 C 625.128906 341.320312 623.746094 341.847656 622.390625 342.414062 C 611.8125 346.816406 602.898438 353.621094 591.585938 356.472656 C 580.785156 359.195312 569.777344 352.355469 559.878906 348.679688 C 554.496094 346.683594 549.257812 344.3125 543.835938 342.414062 C 542.628906 341.992188 541.402344 341.652344 540.167969 341.34375 C 540.164062 341.347656 540.164062 341.351562 540.164062 341.351562 C 539.871094 341.964844 539.582031 342.5625 539.292969 343.144531 C 539.289062 343.152344 539.285156 343.160156 539.28125 343.167969 C 539.886719 343.300781 540.492188 343.445312 541.09375 343.589844 C 547.367188 345.09375 553.378906 348.171875 559.378906 350.507812 C 568.28125 353.964844 578.628906 360.023438 588.46875 359.015625 "/>
<path style=" stroke:none;fill-rule:nonzero;fill:rgb(93.328857%,66.668701%,58.039856%);fill-opacity:1;" d="M 591.527344 346.511719 C 584.976562 347.875 578.839844 345.648438 572.730469 343.539062 C 567.476562 341.71875 562.058594 340.476562 556.851562 338.503906 C 552.421875 336.832031 548.164062 334.742188 543.808594 332.882812 C 543.804688 332.898438 543.800781 332.90625 543.792969 332.917969 C 543.582031 333.472656 543.367188 334.027344 543.140625 334.574219 C 543.140625 334.578125 543.136719 334.582031 543.136719 334.585938 C 546.863281 336.136719 550.503906 337.929688 554.230469 339.457031 C 560.097656 341.871094 566.210938 343.367188 572.226562 345.355469 C 577.519531 347.113281 582.558594 348.90625 588.191406 348.851562 C 599.59375 348.734375 611.304688 342.222656 620.808594 336.609375 C 621.835938 336.003906 622.894531 335.421875 623.957031 334.84375 C 623.953125 334.835938 623.953125 334.832031 623.949219 334.824219 C 623.707031 334.195312 623.480469 333.570312 623.265625 332.957031 C 619.492188 335.011719 615.859375 337.363281 612.085938 339.390625 C 605.632812 342.863281 598.671875 345.023438 591.527344 346.511719 "/>
<path style=" stroke:none;fill-rule:nonzero;fill:rgb(93.328857%,66.668701%,58.039856%);fill-opacity:1;" d="M 570.6875 335.046875 C 577.0625 336.53125 583.023438 338.644531 589.644531 338.519531 C 600.742188 338.316406 612.296875 333.34375 621.824219 327.667969 C 621.722656 327.117188 621.644531 326.582031 621.597656 326.074219 C 621.574219 325.867188 621.554688 325.648438 621.53125 325.417969 C 611.550781 331.0625 601.457031 335.421875 589.644531 336.628906 C 583.476562 337.257812 577.074219 334.742188 571.191406 333.21875 C 563.921875 331.339844 557.160156 329.820312 550.273438 326.664062 C 548.980469 326.074219 547.695312 325.460938 546.417969 324.839844 C 546.414062 324.84375 546.414062 324.847656 546.414062 324.851562 C 546.398438 324.941406 546.382812 325.03125 546.367188 325.113281 C 546.34375 325.230469 546.320312 325.339844 546.292969 325.433594 C 546.179688 325.839844 546.0625 326.25 545.941406 326.652344 C 548.351562 327.8125 550.761719 328.976562 553.214844 330.050781 C 558.820312 332.515625 564.757812 333.65625 570.6875 335.046875 "/>
<path style=" stroke:none;fill-rule:nonzero;fill:rgb(93.328857%,66.668701%,58.039856%);fill-opacity:1;" d="M 571.847656 323.601562 C 564.550781 322.179688 557.847656 321.144531 550.992188 318.023438 C 549.59375 317.390625 548.21875 316.714844 546.851562 316.019531 C 546.847656 316.730469 546.839844 317.421875 546.824219 318.078125 C 547.894531 318.613281 548.957031 319.148438 550.03125 319.660156 C 556.183594 322.617188 562.535156 323.945312 569.234375 325.0625 C 576.550781 326.277344 583.621094 328.398438 591.097656 328.195312 C 602.304688 327.886719 612.210938 324.324219 621.519531 319.316406 C 621.546875 318.652344 621.574219 317.960938 621.609375 317.25 C 621.613281 317.230469 621.613281 317.214844 621.613281 317.191406 C 619.234375 318.597656 616.785156 319.882812 614.148438 320.957031 C 608.011719 323.457031 601.378906 324.65625 594.890625 325.804688 C 587.027344 327.199219 579.515625 325.101562 571.847656 323.601562 "/>
<path style=" stroke:none;fill-rule:nonzero;fill:rgb(93.328857%,66.668701%,58.039856%);fill-opacity:1;" d="M 622.167969 308.640625 C 614.082031 312.519531 605.363281 314.011719 596.566406 315.457031 C 585.960938 317.1875 574.726562 314.371094 564.167969 312.9375 C 557.917969 312.085938 552.253906 309.769531 546.773438 306.957031 C 546.773438 306.96875 546.773438 306.976562 546.773438 306.988281 C 546.785156 307.613281 546.796875 308.234375 546.808594 308.855469 C 546.808594 308.902344 546.808594 308.949219 546.808594 309 C 552.105469 311.628906 557.546875 313.785156 563.660156 314.761719 C 573.65625 316.363281 584.621094 318.726562 594.761719 317.628906 C 603.984375 316.632812 613.519531 314.65625 622.007812 310.773438 C 622.058594 310.066406 622.113281 309.351562 622.167969 308.640625 "/>
<path style=" stroke:none;fill-rule:nonzero;fill:rgb(93.328857%,66.668701%,58.039856%);fill-opacity:1;" d="M 546.597656 299.871094 C 552.75 303 558.945312 304.75 565.941406 305.492188 C 574.558594 306.410156 583.425781 307.527344 592.097656 307.511719 C 602.011719 307.488281 613.121094 305.679688 622.765625 301.574219 C 622.820312 300.964844 622.875 300.359375 622.933594 299.761719 C 622.9375 299.722656 622.941406 299.679688 622.945312 299.636719 C 622.15625 300 621.359375 300.347656 620.527344 300.660156 C 613.40625 303.34375 605.5625 304.09375 598.085938 305.210938 C 590.273438 306.382812 582.65625 305.308594 574.859375 304.582031 C 564.96875 303.65625 556.296875 303.074219 547.230469 298.519531 C 546.996094 298.40625 546.773438 298.28125 546.546875 298.164062 C 546.5625 298.6875 546.582031 299.226562 546.597656 299.769531 C 546.597656 299.800781 546.597656 299.835938 546.597656 299.871094 "/>
<path style=" stroke:none;fill-rule:nonzero;fill:rgb(93.328857%,66.668701%,58.039856%);fill-opacity:1;" d="M 544.1875 298.578125 L 544.550781 297.328125 L 544.601562 297.152344 C 538.921875 294.085938 533.492188 290.546875 527.804688 287.488281 C 523.335938 285.078125 518.164062 283.25 514.242188 279.917969 C 514.105469 280.105469 513.972656 280.285156 513.84375 280.464844 C 516.539062 283.019531 519.976562 284.871094 523.199219 286.578125 C 530.335938 290.355469 537.160156 294.621094 544.1875 298.578125 "/>
<path style=" stroke:none;fill-rule:nonzero;fill:rgb(93.328857%,66.668701%,58.039856%);fill-opacity:1;" d="M 626.835938 299.625 C 626.839844 299.632812 626.84375 299.640625 626.847656 299.648438 C 629.476562 298.28125 631.957031 296.722656 634.21875 294.953125 C 640.605469 289.941406 647.402344 285.40625 653.140625 279.644531 C 654.109375 278.667969 655.050781 277.675781 655.992188 276.675781 C 655.59375 276.210938 655.191406 275.75 654.792969 275.285156 C 650.136719 280.144531 645.183594 284.128906 639.777344 288.242188 C 635.214844 291.710938 631.027344 295.226562 626.199219 297.96875 C 626.203125 297.976562 626.207031 297.984375 626.210938 297.992188 C 626.40625 298.535156 626.617188 299.085938 626.835938 299.625 "/>
<path style=" stroke:none;fill-rule:nonzero;fill:rgb(93.328857%,66.668701%,58.039856%);fill-opacity:1;" d="M 561.140625 250.183594 C 561.140625 250.183594 578.117188 268.277344 584.898438 268.148438 C 594.621094 267.960938 610.828125 249.429688 611.136719 249.074219 C 611.140625 249.070312 611.152344 249.054688 611.152344 249.054688 C 611.152344 249.054688 595.710938 249.089844 594.847656 242.28125 C 594.222656 237.363281 594.183594 230.972656 594.214844 227.785156 C 599.035156 224.003906 601.859375 217.324219 602.828125 209.984375 C 605.503906 208.242188 610.386719 201.871094 605.761719 200.300781 C 605.625 200.246094 605.492188 200.230469 605.355469 200.210938 C 604.957031 200.15625 604.574219 200.234375 604.234375 200.410156 C 603.796875 200.632812 603.421875 201.011719 603.140625 201.449219 C 602.207031 198.222656 601.5625 170.617188 577.109375 174.765625 C 568.765625 177.734375 562.855469 189.757812 565.585938 201.683594 C 564.988281 201.128906 564.207031 200.835938 563.390625 201.179688 C 563.191406 201.257812 563.011719 201.347656 562.851562 201.441406 C 559.679688 203.257812 563.148438 207.976562 565.804688 210.089844 C 566.847656 218.609375 570.460938 226.226562 576.882812 229.378906 C 576.941406 233.113281 577.019531 239.496094 576.917969 242.90625 C 576.769531 247.921875 561.140625 250.183594 561.140625 250.183594 "/>
<path style=" stroke:none;fill-rule:nonzero;fill:rgb(67.83905%,54.119873%,22.349548%);fill-opacity:1;" d="M 634.65625 355.859375 C 634.65625 355.859375 621.359375 359.8125 607.761719 365.757812 C 599.488281 369.375 590.421875 376.246094 586.144531 376.136719 C 580.019531 375.984375 566.992188 367.097656 554.332031 361.550781 C 543.625 356.855469 532.558594 355.347656 532.558594 355.347656 C 532.558594 355.347656 532.558594 355.347656 532.554688 355.347656 C 529.871094 356.480469 517.414062 359.945312 520.265625 361.582031 C 520.265625 361.582031 520.265625 361.585938 520.265625 361.585938 C 532.710938 366.265625 545.363281 373.550781 555.558594 382.894531 C 556.867188 381.757812 558.332031 380.796875 559.96875 380.132812 C 562.6875 379.046875 565.898438 379.261719 568.449219 380.683594 C 571.023438 382.023438 573.039062 384.121094 575.597656 385.117188 C 578.160156 386.097656 581.011719 386.320312 583.792969 386.480469 C 586.605469 386.617188 589.402344 386.535156 592.226562 386.339844 C 595.050781 386.21875 597.859375 385.945312 600.660156 385.6875 C 603.46875 385.460938 606.234375 385.003906 608.980469 384.390625 C 611.730469 383.789062 614.464844 383.078125 617.21875 382.4375 C 617.488281 382.375 617.757812 382.316406 618.023438 382.25 C 628.769531 374.074219 641.933594 368.59375 655.273438 365.957031 C 655.351562 365.941406 655.425781 365.921875 655.5 365.90625 C 655.507812 365.894531 655.507812 365.882812 655.515625 365.871094 C 657.128906 362.835938 640.570312 358.410156 634.65625 355.859375 "/>
<path style=" stroke:none;fill-rule:nonzero;fill:rgb(78.039551%,45.489502%,36.859131%);fill-opacity:1;" d="M 571.492188 166.226562 C 573.082031 168.441406 576.996094 169.566406 579.589844 170.121094 C 579.664062 170.136719 579.734375 170.144531 579.808594 170.164062 C 584.339844 169.886719 588.617188 168.511719 592.933594 166.390625 C 593.144531 166.289062 593.332031 166.367188 593.429688 166.507812 C 596.011719 162.039062 596.566406 156.015625 592.023438 152.464844 C 586.179688 147.828125 576.332031 148.785156 572.59375 153.683594 C 570.625 156.488281 570.015625 162.105469 571.429688 166.183594 C 571.449219 166.199219 571.476562 166.203125 571.492188 166.226562 "/>
<path style=" stroke:none;fill-rule:nonzero;fill:rgb(78.039551%,45.489502%,36.859131%);fill-opacity:1;" d="M 573.90625 169.894531 C 574.871094 170.039062 575.8125 170.128906 576.742188 170.171875 C 575.292969 169.628906 573.496094 169.039062 572.257812 167.996094 C 572.707031 168.75 573.257812 169.394531 573.90625 169.894531 "/>
<path style=" stroke:none;fill-rule:nonzero;fill:rgb(78.039551%,45.489502%,36.859131%);fill-opacity:1;" d="M 591.238281 185.699219 C 590.617188 184.335938 589.59375 182.179688 588.273438 180.207031 C 589.734375 181.863281 591.011719 183.664062 591.964844 185.476562 C 593.753906 188.984375 597.296875 200.628906 602.601562 200.789062 C 596.421875 203.917969 593.183594 189.988281 591.238281 185.699219 Z M 592.078125 169.878906 C 591.34375 171.886719 586.542969 171.929688 584.980469 172.054688 C 581.664062 172.3125 576.167969 172.640625 573.496094 170.171875 C 573.078125 170.398438 572.675781 170.636719 572.277344 170.878906 C 572.164062 170.949219 572.050781 171.015625 571.941406 171.085938 C 570.753906 172.480469 569.230469 173.703125 567.527344 174.460938 C 558.316406 182.96875 556.804688 195.371094 562.851562 201.441406 C 563.015625 201.347656 563.191406 201.257812 563.394531 201.183594 C 564.210938 200.835938 564.992188 201.128906 565.589844 201.683594 C 566.339844 190.5625 571.128906 179.84375 579.46875 176.871094 C 580.015625 176.585938 581.074219 176.3125 582.125 176.101562 L 582.128906 176.101562 C 588.5 181.3125 586.609375 188.898438 589.929688 196.050781 C 591.878906 200.25 594.992188 203.617188 599.957031 203.171875 C 600.265625 203.144531 600.382812 202.664062 600.035156 202.601562 C 586.152344 200.078125 591.78125 184.058594 583.980469 176.707031 C 589.738281 179.589844 592.078125 191.015625 594.140625 195.875 C 595.761719 199.695312 599.734375 203.023438 603.140625 201.449219 C 603.640625 200.667969 604.441406 200.082031 605.355469 200.210938 C 611.300781 192.328125 605.910156 172.394531 592.078125 169.878906 "/>
<path style=" stroke:none;fill-rule:nonzero;fill:rgb(78.039551%,45.489502%,36.859131%);fill-opacity:1;" d="M 580.949219 171.414062 C 580.65625 171.355469 580.367188 171.304688 580.085938 171.238281 C 579.886719 171.25 579.6875 171.257812 579.488281 171.265625 C 579.96875 171.324219 580.453125 171.375 580.949219 171.414062 "/>
<path style=" stroke:none;fill-rule:nonzero;fill:rgb(78.039551%,45.489502%,36.859131%);fill-opacity:1;" d="M 589.492188 170.445312 C 590.117188 170.1875 590.675781 169.875 591.164062 169.503906 C 591.8125 168.847656 592.414062 168.109375 592.945312 167.296875 C 590.535156 168.84375 587.691406 169.984375 584.839844 170.617188 C 586.363281 170.609375 587.894531 170.519531 589.492188 170.445312 "/>
<path style=" stroke:none;fill-rule:nonzero;fill:rgb(96.078491%,73.329163%,70.199585%);fill-opacity:1;" d="M 513.738281 84.078125 C 513.738281 54.863281 496.023438 31.179688 474.167969 31.179688 C 468.175781 31.179688 462.492188 32.964844 457.402344 36.152344 C 449.109375 18.191406 430.585938 5.6875 409.066406 5.6875 C 389.523438 5.6875 372.453125 16 363.273438 31.347656 C 356.585938 20.421875 345.148438 13.21875 332.160156 13.21875 C 318.722656 13.21875 306.949219 20.929688 300.371094 32.488281 C 297.378906 31.640625 294.238281 31.179688 290.992188 31.179688 C 270.902344 31.179688 254.613281 48.585938 254.613281 70.054688 C 254.613281 73.796875 255.117188 77.410156 256.039062 80.832031 C 237.109375 86.144531 223.339844 102.277344 223.339844 121.359375 C 223.339844 144.765625 244.054688 163.742188 269.613281 163.742188 C 269.628906 163.742188 269.644531 163.742188 269.660156 163.742188 C 269.632812 164.425781 269.613281 165.117188 269.613281 165.8125 C 269.613281 190.363281 288.972656 210.265625 312.851562 210.265625 C 321.253906 210.265625 329.09375 207.792969 335.730469 203.53125 C 343.996094 214.925781 357.605469 222.375 373.007812 222.375 C 391.980469 222.375 408.246094 211.082031 415.128906 195.019531 C 421.003906 197.453125 427.417969 198.792969 434.140625 198.792969 C 462.242188 198.792969 485.019531 175.394531 485.019531 146.535156 C 485.019531 142.703125 484.613281 138.972656 483.851562 135.375 C 501.023438 129.601562 513.738281 108.824219 513.738281 84.078125 "/>
<g clip-path="url(#clip4)" clip-rule="nonzero">
<path style=" stroke:none;fill-rule:nonzero;fill:rgb(96.078491%,73.329163%,70.199585%);fill-opacity:1;" d="M 336.425781 199.835938 L 337.945312 201.929688 C 345.988281 213.023438 358.652344 216.691406 372.566406 216.691406 C 389.9375 216.691406 405.925781 209.554688 412.613281 193.945312 L 413.675781 191.460938 L 416.175781 192.496094 C 421.890625 194.863281 429.347656 193.867188 435.554688 193.867188 C 462.101562 193.867188 478.730469 169.207031 480.203125 148.59375 C 480.457031 145.042969 481.910156 139.410156 481.175781 135.941406 L 480.671875 133.5625 L 482.980469 132.789062 C 499.480469 127.238281 508.589844 106.941406 508.589844 83.808594 C 508.589844 56.144531 494.480469 33.910156 474.167969 33.910156 C 468.835938 33.910156 463.683594 35.441406 458.855469 38.464844 L 456.21875 40.113281 L 454.917969 37.292969 C 446.820312 19.753906 429.917969 11.292969 410.164062 11.292969 C 392.34375 11.292969 374.597656 17.742188 365.621094 32.75 L 363.300781 36.625 L 360.941406 32.773438 C 354.492188 22.238281 342.480469 19.023438 330.910156 19.023438 C 318.863281 19.023438 309.121094 22.636719 302.75 33.839844 L 301.6875 35.703125 L 299.621094 35.117188 C 296.808594 34.316406 293.902344 33.910156 290.992188 33.910156 C 272.441406 33.910156 257.347656 50.125 257.347656 70.054688 C 257.347656 73.453125 257.796875 76.84375 258.679688 80.125 L 259.382812 82.734375 L 256.78125 83.464844 C 238.414062 88.617188 229.167969 104.207031 229.167969 121.722656 C 229.167969 143.574219 245.585938 160.992188 269.578125 161.007812 L 272.523438 161.007812 L 272.394531 163.863281 C 272.363281 164.589844 272.347656 165.226562 272.347656 165.8125 C 272.347656 188.816406 290.515625 207.535156 312.851562 207.535156 C 320.433594 207.535156 327.832031 205.355469 334.25 201.234375 Z M 373.007812 225.105469 C 358.199219 225.105469 344.195312 218.429688 335.046875 207.132812 C 328.265625 210.976562 320.644531 212.996094 312.851562 212.996094 C 287.695312 212.996094 267.1875 192.152344 266.878906 166.402344 C 241.125 165.09375 220.605469 145.390625 220.605469 121.359375 C 220.605469 111.46875 224.015625 102.074219 230.472656 94.203125 C 236.144531 87.289062 243.996094 81.949219 252.789062 78.980469 C 252.183594 76.046875 251.878906 73.054688 251.878906 70.054688 C 251.878906 47.113281 269.425781 28.445312 290.992188 28.445312 C 293.707031 28.445312 296.417969 28.746094 299.070312 29.34375 C 306.558594 17.496094 318.785156 10.488281 332.160156 10.488281 C 344.304688 10.488281 355.648438 16.375 363.226562 26.421875 C 373.570312 11.851562 390.765625 2.957031 409.066406 2.957031 C 429.933594 2.957031 449.039062 14.394531 458.5625 32.339844 C 463.515625 29.753906 468.753906 28.445312 474.167969 28.445312 C 497.496094 28.445312 516.472656 53.402344 516.472656 84.078125 C 516.472656 108.488281 504.453125 129.878906 486.964844 137.121094 C 487.488281 140.226562 487.753906 143.382812 487.753906 146.535156 C 487.753906 176.855469 463.703125 201.523438 434.140625 201.523438 C 428.09375 201.523438 422.1875 200.503906 416.535156 198.488281 C 408.472656 214.742188 391.667969 225.105469 373.007812 225.105469 "/>
</g>
<path style=" stroke:none;fill-rule:nonzero;fill:rgb(96.078491%,73.329163%,70.199585%);fill-opacity:1;" d="M 451.191406 218.867188 C 451.191406 226.085938 444.191406 231.933594 435.554688 231.933594 C 426.917969 231.933594 419.917969 226.085938 419.917969 218.867188 C 419.917969 211.652344 426.917969 205.804688 435.554688 205.804688 C 444.191406 205.804688 451.191406 211.652344 451.191406 218.867188 "/>
<path style=" stroke:none;fill-rule:nonzero;fill:rgb(96.078491%,73.329163%,70.199585%);fill-opacity:1;" d="M 435.554688 208.535156 C 428.441406 208.535156 422.652344 213.171875 422.652344 218.867188 C 422.652344 224.566406 428.441406 229.203125 435.554688 229.203125 C 442.667969 229.203125 448.457031 224.566406 448.457031 218.867188 C 448.457031 213.171875 442.667969 208.535156 435.554688 208.535156 Z M 435.554688 234.664062 C 425.425781 234.664062 417.183594 227.578125 417.183594 218.867188 C 417.183594 210.160156 425.425781 203.074219 435.554688 203.074219 C 445.683594 203.074219 453.925781 210.160156 453.925781 218.867188 C 453.925781 227.578125 445.683594 234.664062 435.554688 234.664062 "/>
<path style=" stroke:none;fill-rule:nonzero;fill:rgb(96.078491%,73.329163%,70.199585%);fill-opacity:1;" d="M 474.804688 238.308594 C 474.804688 244.292969 469.519531 249.144531 463 249.144531 C 456.476562 249.144531 451.191406 244.292969 451.191406 238.308594 C 451.191406 232.324219 456.476562 227.472656 463 227.472656 C 469.519531 227.472656 474.804688 232.324219 474.804688 238.308594 "/>
<path style=" stroke:none;fill-rule:nonzero;fill:rgb(96.078491%,73.329163%,70.199585%);fill-opacity:1;" d="M 463 230.203125 C 457.996094 230.203125 453.925781 233.839844 453.925781 238.308594 C 453.925781 242.777344 457.996094 246.410156 463 246.410156 C 468 246.410156 472.070312 242.777344 472.070312 238.308594 C 472.070312 233.839844 468 230.203125 463 230.203125 Z M 463 251.871094 C 454.980469 251.871094 448.457031 245.789062 448.457031 238.308594 C 448.457031 230.828125 454.980469 224.742188 463 224.742188 C 471.019531 224.742188 477.542969 230.828125 477.542969 238.308594 C 477.542969 245.789062 471.019531 251.871094 463 251.871094 "/>
<path style=" stroke:none;fill-rule:nonzero;fill:rgb(96.078491%,73.329163%,70.199585%);fill-opacity:1;" d="M 493.953125 256.472656 C 493.953125 260.519531 490.808594 263.800781 486.933594 263.800781 C 483.054688 263.800781 479.914062 260.519531 479.914062 256.472656 C 479.914062 252.421875 483.054688 249.144531 486.933594 249.144531 C 490.808594 249.144531 493.953125 252.421875 493.953125 256.472656 "/>
<g clip-path="url(#clip5)" clip-rule="nonzero">
<path style=" stroke:none;fill-rule:nonzero;fill:rgb(96.078491%,73.329163%,70.199585%);fill-opacity:1;" d="M 486.933594 251.871094 C 484.570312 251.871094 482.648438 253.933594 482.648438 256.472656 C 482.648438 259.007812 484.570312 261.070312 486.933594 261.070312 C 489.296875 261.070312 491.21875 259.007812 491.21875 256.472656 C 491.21875 253.933594 489.296875 251.871094 486.933594 251.871094 Z M 486.933594 266.53125 C 481.554688 266.53125 477.179688 262.019531 477.179688 256.472656 C 477.179688 250.925781 481.554688 246.410156 486.933594 246.410156 C 492.3125 246.410156 496.691406 250.925781 496.691406 256.472656 C 496.691406 262.019531 492.3125 266.53125 486.933594 266.53125 "/>
</g>
<path style=" stroke:none;fill-rule:nonzero;fill:rgb(100%,100%,100%);fill-opacity:1;" d="M 389.390625 16.351562 C 389.390625 16.351562 437.875 1.058594 453.925781 44.390625 C 453.925781 44.390625 490.761719 16.351562 505.347656 70.242188 C 505.347656 70.242188 484.914062 24 451.191406 54.949219 C 451.191406 54.949219 446.640625 10.164062 389.390625 16.351562 "/>
<g clip-path="url(#clip6)" clip-rule="nonzero">
<path style=" stroke:none;fill-rule:nonzero;fill:rgb(33.329773%,33.329773%,53.329468%);fill-opacity:1;" d="M 365.25 162.035156 C 365.25 160.632812 364.769531 159.632812 363.800781 159.042969 C 362.835938 158.449219 361.460938 158.152344 359.632812 158.152344 L 359.632812 152.96875 C 360.539062 152.96875 361.34375 152.90625 362.046875 152.773438 C 362.765625 152.628906 363.363281 152.40625 363.847656 152.101562 C 364.328125 151.785156 364.6875 151.378906 364.921875 150.886719 C 365.171875 150.394531 365.28125 149.804688 365.253906 149.109375 L 365.253906 142.214844 C 365.253906 141.144531 365.390625 140.234375 365.679688 139.480469 C 365.964844 138.691406 366.464844 138.070312 367.171875 137.617188 C 367.90625 137.125 368.890625 136.761719 370.136719 136.53125 C 371.382812 136.300781 372.960938 136.183594 374.878906 136.183594 L 374.878906 141.0625 C 374.292969 141.078125 373.757812 141.128906 373.277344 141.214844 C 372.808594 141.304688 372.40625 141.460938 372.070312 141.691406 C 371.746094 141.910156 371.5 142.210938 371.324219 142.601562 C 371.148438 142.992188 371.058594 143.5 371.058594 144.121094 L 371.058594 150.605469 C 370.972656 153.308594 369.257812 154.914062 365.921875 155.421875 L 365.921875 155.679688 C 367.605469 155.925781 368.894531 156.449219 369.777344 157.242188 C 370.660156 158.039062 371.089844 159.117188 371.058594 160.476562 L 371.058594 166.960938 C 371.058594 167.582031 371.148438 168.089844 371.324219 168.480469 C 371.5 168.871094 371.746094 169.171875 372.070312 169.390625 C 372.40625 169.621094 372.816406 169.78125 373.277344 169.863281 C 373.804688 169.957031 374.339844 170.007812 374.878906 170.015625 L 374.878906 174.917969 C 372.953125 174.917969 371.378906 174.8125 370.136719 174.570312 C 368.894531 174.332031 367.90625 173.980469 367.171875 173.488281 C 366.464844 173.03125 365.964844 172.410156 365.679688 171.621094 C 365.402344 170.855469 365.253906 169.9375 365.253906 168.867188 L 365.253906 162.035156 M 377.738281 164.789062 C 377.738281 164.109375 377.847656 163.539062 378.027344 163.074219 C 378.238281 162.601562 378.507812 162.214844 378.859375 161.925781 C 379.214844 161.636719 379.609375 161.425781 380.089844 161.296875 C 380.585938 161.164062 381.089844 161.097656 381.601562 161.101562 C 382.09375 161.097656 382.578125 161.164062 383.050781 161.296875 C 383.519531 161.425781 383.929688 161.636719 384.28125 161.925781 C 384.632812 162.21875 384.910156 162.597656 385.113281 163.074219 C 385.328125 163.539062 385.421875 164.109375 385.421875 164.789062 C 385.421875 165.441406 385.320312 165.996094 385.113281 166.460938 C 384.910156 166.921875 384.632812 167.304688 384.28125 167.609375 C 383.921875 167.917969 383.511719 168.136719 383.050781 168.261719 C 382.597656 168.40625 382.113281 168.476562 381.601562 168.476562 C 381.0625 168.476562 380.554688 168.40625 380.089844 168.261719 C 379.628906 168.136719 379.21875 167.917969 378.859375 167.609375 C 378.496094 167.289062 378.214844 166.90625 378.027344 166.460938 C 377.835938 166 377.738281 165.441406 377.738281 164.789062 M 390.117188 178.570312 C 389.390625 178.570312 388.667969 178.519531 387.945312 178.417969 C 387.199219 178.316406 386.578125 178.1875 386.082031 178.027344 L 386.082031 172.824219 C 386.496094 172.957031 386.921875 173.058594 387.355469 173.125 C 387.75 173.199219 388.195312 173.234375 388.691406 173.234375 C 389.046875 173.238281 389.390625 173.179688 389.722656 173.0625 C 390.070312 172.953125 390.355469 172.757812 390.578125 172.476562 C 390.828125 172.199219 391.027344 171.824219 391.171875 171.347656 C 391.320312 170.886719 391.390625 170.285156 391.390625 169.546875 L 391.390625 143.640625 L 398.085938 143.640625 L 398.085938 170.503906 C 398.085938 171.617188 397.9375 172.660156 397.65625 173.628906 C 397.378906 174.609375 396.90625 175.464844 396.273438 176.1875 C 395.644531 176.925781 394.824219 177.503906 393.816406 177.921875 C 392.808594 178.339844 391.578125 178.550781 390.128906 178.550781 M 391.117188 137.363281 C 391.117188 136.742188 391.222656 136.230469 391.402344 135.824219 C 391.578125 135.429688 391.832031 135.097656 392.171875 134.828125 C 392.519531 134.558594 392.90625 134.378906 393.335938 134.285156 C 393.804688 134.179688 394.28125 134.128906 394.761719 134.132812 C 395.234375 134.128906 395.703125 134.179688 396.164062 134.285156 C 396.59375 134.386719 396.984375 134.566406 397.304688 134.828125 C 397.644531 135.070312 397.90625 135.40625 398.097656 135.824219 C 398.308594 136.230469 398.402344 136.742188 398.402344 137.363281 C 398.402344 137.96875 398.300781 138.484375 398.097656 138.902344 C 397.90625 139.324219 397.644531 139.664062 397.304688 139.921875 C 396.984375 140.167969 396.605469 140.347656 396.164062 140.464844 C 395.738281 140.566406 395.257812 140.617188 394.761719 140.617188 C 394.28125 140.621094 393.804688 140.570312 393.335938 140.464844 C 392.914062 140.359375 392.523438 140.175781 392.171875 139.921875 C 391.851562 139.664062 391.59375 139.324219 391.402344 138.902344 C 391.214844 138.484375 391.117188 137.96875 391.117188 137.363281 M 421.335938 160.691406 C 421.335938 161.960938 421.101562 163.074219 420.632812 164.03125 C 420.167969 164.988281 419.503906 165.785156 418.636719 166.414062 C 417.773438 167.050781 416.730469 167.53125 415.5 167.847656 C 414.269531 168.164062 412.894531 168.324219 411.375 168.324219 C 410.570312 168.324219 409.824219 168.292969 409.136719 168.234375 C 408.480469 168.195312 407.828125 168.117188 407.183594 167.996094 L 405.40625 167.574219 C 404.816406 167.394531 404.238281 167.175781 403.671875 166.921875 L 403.671875 161.4375 C 404.289062 161.742188 404.933594 162.015625 405.605469 162.265625 L 407.644531 162.914062 L 409.597656 163.335938 C 410.242188 163.4375 410.835938 163.488281 411.375 163.488281 C 411.972656 163.488281 412.488281 163.4375 412.910156 163.335938 C 413.285156 163.25 413.628906 163.101562 413.941406 162.882812 C 414.203125 162.703125 414.402344 162.472656 414.535156 162.1875 C 414.667969 161.914062 414.734375 161.625 414.734375 161.320312 C 414.734375 161.019531 414.683594 160.75 414.578125 160.519531 C 414.492188 160.273438 414.28125 160.019531 413.941406 159.757812 C 413.605469 159.484375 413.109375 159.179688 412.449219 158.847656 L 409.839844 157.578125 L 407.050781 156.167969 C 406.277344 155.695312 405.632812 155.164062 405.121094 154.585938 C 404.625 154.007812 404.25 153.347656 404 152.613281 C 403.753906 151.878906 403.628906 150.972656 403.628906 149.945312 C 403.628906 148.820312 403.847656 147.835938 404.285156 146.984375 C 404.714844 146.132812 405.355469 145.421875 406.152344 144.871094 C 406.945312 144.316406 407.921875 143.886719 409.046875 143.601562 C 410.1875 143.3125 411.453125 143.175781 412.84375 143.175781 C 414.304688 143.175781 415.695312 143.34375 417.011719 143.675781 C 418.328125 144.007812 419.683594 144.507812 421.074219 145.171875 L 419.042969 149.910156 C 418.007812 149.421875 416.945312 148.996094 415.859375 148.632812 C 414.851562 148.300781 413.839844 148.132812 412.832031 148.132812 C 411.925781 148.132812 411.265625 148.289062 410.855469 148.609375 C 410.460938 148.925781 410.265625 149.347656 410.265625 149.910156 C 410.265625 150.199219 410.316406 150.457031 410.417969 150.6875 C 410.519531 150.90625 410.726562 151.136719 411.03125 151.382812 C 411.339844 151.617188 411.78125 151.875 412.316406 152.164062 L 414.488281 153.183594 L 417.296875 154.527344 C 418.132812 154.949219 418.847656 155.460938 419.4375 156.023438 C 420.027344 156.585938 420.507812 157.246094 420.820312 157.996094 C 421.132812 158.75 421.300781 159.660156 421.300781 160.730469 M 433.246094 168.867188 C 433.246094 169.9375 433.105469 170.855469 432.816406 171.621094 C 432.527344 172.386719 432.035156 173.011719 431.304688 173.488281 C 430.585938 173.980469 429.605469 174.339844 428.363281 174.570312 C 427.121094 174.800781 425.539062 174.917969 423.625 174.917969 L 423.625 170.003906 C 424.152344 169.996094 424.679688 169.945312 425.203125 169.851562 C 425.671875 169.765625 426.066406 169.609375 426.386719 169.378906 C 426.738281 169.148438 426.992188 168.847656 427.15625 168.464844 C 427.347656 168.074219 427.441406 167.570312 427.441406 166.949219 L 427.441406 160.460938 C 427.398438 159.105469 427.820312 158.027344 428.726562 157.230469 C 429.628906 156.433594 430.898438 155.914062 432.578125 155.667969 L 432.578125 155.410156 C 429.257812 154.902344 427.554688 153.296875 427.464844 150.59375 L 427.464844 144.109375 C 427.464844 143.484375 427.359375 142.980469 427.179688 142.589844 C 427.015625 142.210938 426.761719 141.90625 426.410156 141.679688 C 426.089844 141.445312 425.695312 141.289062 425.226562 141.203125 C 424.703125 141.113281 424.175781 141.0625 423.648438 141.050781 L 423.648438 136.171875 C 425.574219 136.171875 427.144531 136.277344 428.386719 136.515625 C 429.628906 136.757812 430.609375 137.109375 431.328125 137.601562 C 432.058594 138.078125 432.5625 138.703125 432.839844 139.46875 C 433.121094 140.207031 433.269531 141.128906 433.269531 142.199219 L 433.269531 149.09375 C 433.253906 149.789062 433.375 150.382812 433.597656 150.875 C 433.820312 151.367188 434.191406 151.769531 434.675781 152.089844 C 435.15625 152.390625 435.75 152.617188 436.449219 152.761719 C 437.167969 152.890625 437.980469 152.957031 438.886719 152.957031 L 438.886719 158.140625 C 437.066406 158.140625 435.660156 158.433594 434.695312 159.027344 C 433.730469 159.621094 433.269531 160.617188 433.269531 162.019531 L 433.269531 168.851562 "/>
</g>
<g clip-path="url(#clip7)" clip-rule="nonzero">
<path style=" stroke:none;fill-rule:nonzero;fill:rgb(21.958923%,55.688477%,23.529053%);fill-opacity:1;" d="M 386.378906 58.074219 L 377.535156 63.007812 C 377.207031 63.191406 377 63.53125 377 63.902344 L 377 73.769531 C 377 74.140625 377.207031 74.480469 377.535156 74.664062 L 386.382812 79.601562 C 386.710938 79.785156 387.121094 79.785156 387.449219 79.601562 L 396.292969 74.664062 C 396.621094 74.480469 396.824219 74.140625 396.824219 73.769531 L 396.824219 63.902344 C 396.824219 63.53125 396.621094 63.191406 396.289062 63.007812 L 387.449219 58.074219 C 387.28125 57.980469 387.097656 57.9375 386.914062 57.9375 C 386.726562 57.9375 386.542969 57.980469 386.378906 58.074219 M 431.878906 66.960938 L 430.40625 67.78125 C 430.347656 67.8125 430.316406 67.867188 430.316406 67.929688 L 430.316406 69.574219 C 430.316406 69.636719 430.351562 69.695312 430.40625 69.726562 L 431.878906 70.546875 C 431.933594 70.578125 432 70.578125 432.058594 70.546875 L 433.53125 69.726562 C 433.585938 69.695312 433.621094 69.636719 433.621094 69.574219 L 433.621094 67.929688 C 433.621094 67.867188 433.585938 67.8125 433.53125 67.78125 L 432.054688 66.960938 C 432.027344 66.945312 431.996094 66.9375 431.96875 66.9375 C 431.9375 66.9375 431.90625 66.945312 431.878906 66.960938 "/>
</g>
<g clip-path="url(#clip8)" clip-rule="nonzero">
<path style=" stroke:none;fill-rule:nonzero;fill:rgb(21.569824%,27.839661%,30.979919%);fill-opacity:1;" d="M 419.804688 47.613281 L 415.5 45.191406 C 415.363281 45.113281 415.199219 45.117188 415.066406 45.195312 C 414.929688 45.277344 414.847656 45.421875 414.847656 45.578125 L 414.847656 60.207031 L 410.875 57.992188 C 410.710938 57.898438 410.523438 57.851562 410.339844 57.851562 C 410.15625 57.851562 409.972656 57.898438 409.804688 57.992188 L 409.808594 57.992188 L 400.964844 62.921875 C 400.632812 63.105469 400.429688 63.449219 400.429688 63.816406 L 400.429688 73.6875 C 400.429688 74.054688 400.632812 74.394531 400.964844 74.578125 L 409.808594 79.515625 C 410.140625 79.699219 410.546875 79.699219 410.878906 79.515625 L 419.722656 74.578125 C 420.050781 74.394531 420.253906 74.054688 420.253906 73.6875 L 420.253906 48.382812 C 420.253906 48.0625 420.082031 47.769531 419.804688 47.613281 Z M 414.605469 71.402344 L 410.585938 73.644531 C 410.4375 73.730469 410.25 73.730469 410.101562 73.644531 L 406.082031 71.402344 C 405.929688 71.320312 405.835938 71.164062 405.835938 70.996094 L 405.835938 66.507812 C 405.835938 66.339844 405.929688 66.1875 406.078125 66.101562 L 410.101562 63.859375 L 410.097656 63.859375 C 410.175781 63.816406 410.257812 63.796875 410.339844 63.796875 C 410.425781 63.796875 410.507812 63.820312 410.585938 63.859375 L 414.605469 66.101562 C 414.753906 66.1875 414.847656 66.34375 414.847656 66.507812 L 414.847656 70.996094 C 414.847656 71.164062 414.753906 71.320312 414.605469 71.402344 Z M 414.605469 71.402344 "/>
</g>
<g clip-path="url(#clip9)" clip-rule="nonzero">
<path style=" stroke:none;fill-rule:nonzero;fill:rgb(18.03894%,49.01886%,19.60907%);fill-opacity:1;" d="M 386.378906 58.074219 L 377 73.769531 C 377 74.140625 377.207031 74.480469 377.535156 74.664062 L 386.382812 79.601562 C 386.710938 79.785156 387.121094 79.785156 387.449219 79.601562 L 396.824219 63.902344 C 396.824219 63.53125 396.621094 63.191406 396.289062 63.007812 L 387.449219 58.074219 C 387.28125 57.980469 387.097656 57.9375 386.914062 57.9375 C 386.726562 57.9375 386.542969 57.980469 386.378906 58.074219 "/>
<path style=" stroke:none;fill-rule:nonzero;fill:rgb(29.798889%,68.629456%,31.369019%);fill-opacity:1;" d="M 386.378906 58.074219 L 377.535156 63.007812 C 377.207031 63.191406 377 63.53125 377 63.902344 L 386.378906 79.601562 C 386.710938 79.785156 387.117188 79.785156 387.449219 79.601562 L 396.292969 74.664062 C 396.621094 74.480469 396.824219 74.140625 396.824219 73.769531 L 387.449219 58.074219 C 387.28125 57.980469 387.097656 57.9375 386.914062 57.9375 C 386.726562 57.9375 386.542969 57.980469 386.378906 58.074219 "/>
</g>
<g clip-path="url(#clip10)" clip-rule="nonzero">
<path style=" stroke:none;fill-rule:nonzero;fill:rgb(21.569824%,27.839661%,30.979919%);fill-opacity:1;" d="M 441.34375 62.921875 L 432.503906 57.992188 C 432.335938 57.898438 432.152344 57.851562 431.96875 57.851562 C 431.785156 57.851562 431.597656 57.898438 431.433594 57.992188 L 422.589844 62.921875 C 422.261719 63.105469 422.054688 63.457031 422.054688 63.835938 L 422.054688 73.667969 C 422.054688 74.046875 422.261719 74.398438 422.589844 74.582031 L 431.4375 79.515625 C 431.765625 79.703125 432.171875 79.703125 432.503906 79.515625 L 436.582031 77.242188 C 436.957031 77.03125 436.953125 76.492188 436.578125 76.285156 L 427.707031 71.402344 C 427.554688 71.320312 427.460938 71.160156 427.460938 70.988281 L 427.460938 66.507812 C 427.460938 66.34375 427.550781 66.1875 427.695312 66.109375 L 431.722656 63.863281 C 431.796875 63.820312 431.882812 63.800781 431.964844 63.800781 C 432.050781 63.800781 432.132812 63.824219 432.207031 63.863281 L 436.238281 66.109375 C 436.378906 66.191406 436.472656 66.34375 436.472656 66.511719 L 436.472656 70.167969 C 436.472656 70.324219 436.554688 70.46875 436.6875 70.546875 C 436.824219 70.621094 436.988281 70.621094 437.125 70.542969 L 441.445312 68.011719 C 441.714844 67.859375 441.878906 67.570312 441.878906 67.257812 L 441.878906 63.839844 C 441.878906 63.457031 441.671875 63.105469 441.34375 62.921875 Z M 374.664062 62.921875 L 365.824219 57.992188 C 365.65625 57.898438 365.472656 57.851562 365.289062 57.851562 C 365.105469 57.851562 364.917969 57.898438 364.753906 57.992188 L 355.910156 62.921875 C 355.582031 63.105469 355.375 63.457031 355.375 63.835938 L 355.375 77.398438 C 355.375 77.554688 355.457031 77.699219 355.59375 77.777344 C 355.730469 77.855469 355.894531 77.855469 356.03125 77.777344 L 360.351562 75.246094 C 360.617188 75.089844 360.78125 74.800781 360.78125 74.488281 L 360.78125 66.507812 C 360.78125 66.339844 360.871094 66.1875 361.015625 66.105469 L 365.042969 63.859375 C 365.121094 63.820312 365.203125 63.796875 365.289062 63.796875 C 365.371094 63.796875 365.457031 63.820312 365.53125 63.859375 L 369.558594 66.109375 C 369.703125 66.1875 369.792969 66.34375 369.792969 66.507812 L 369.792969 74.492188 C 369.792969 74.804688 369.957031 75.09375 370.226562 75.25 L 374.546875 77.777344 C 374.683594 77.855469 374.847656 77.855469 374.984375 77.78125 C 375.117188 77.699219 375.199219 77.554688 375.199219 77.398438 L 375.199219 63.839844 C 375.199219 63.457031 374.992188 63.105469 374.664062 62.921875 Z M 374.664062 62.921875 "/>
</g>
<path style=" stroke:none;fill-rule:nonzero;fill:rgb(54.508972%,71.759033%,94.119263%);fill-opacity:1;" d="M 301.140625 102.117188 C 301.140625 105.25 298.566406 107.785156 295.386719 107.785156 C 292.207031 107.785156 289.636719 105.25 289.636719 102.117188 C 289.636719 98.980469 292.207031 96.445312 295.386719 96.445312 C 298.566406 96.445312 301.140625 98.980469 301.140625 102.117188 Z M 301.140625 102.117188 "/>
<path style=" stroke:none;fill-rule:nonzero;fill:rgb(30.589294%,47.839355%,70.979309%);fill-opacity:1;" d="M 295.386719 108.222656 C 291.972656 108.222656 289.191406 105.484375 289.191406 102.117188 C 289.191406 98.75 291.972656 96.007812 295.386719 96.007812 C 298.800781 96.007812 301.582031 98.75 301.582031 102.117188 C 301.582031 105.484375 298.800781 108.222656 295.386719 108.222656 Z M 295.386719 96.882812 C 292.457031 96.882812 290.078125 99.230469 290.078125 102.117188 C 290.078125 105.003906 292.457031 107.351562 295.386719 107.351562 C 298.316406 107.351562 300.695312 105.003906 300.695312 102.117188 C 300.695312 99.230469 298.316406 96.882812 295.386719 96.882812 Z M 295.386719 96.882812 "/>
<g clip-path="url(#clip11)" clip-rule="nonzero">
<path style=" stroke:none;fill-rule:nonzero;fill:rgb(54.508972%,71.759033%,94.119263%);fill-opacity:1;" d="M 281.648438 133.089844 C 280.132812 133.089844 278.753906 132.746094 277.546875 132.074219 C 275.53125 130.945312 274.136719 129 273.402344 126.296875 C 272.546875 123.152344 272.648438 118.972656 273.695312 114.191406 C 265.261719 111.332031 260.433594 106.941406 260.433594 102.117188 C 260.433594 97.289062 265.257812 92.902344 273.695312 90.042969 C 272.648438 85.261719 272.546875 81.082031 273.398438 77.933594 C 274.132812 75.230469 275.527344 73.285156 277.546875 72.160156 C 278.75 71.484375 280.132812 71.144531 281.644531 71.144531 C 285.527344 71.144531 290.398438 73.527344 295.390625 77.859375 C 300.378906 73.53125 305.246094 71.148438 309.125 71.148438 C 310.640625 71.148438 312.019531 71.492188 313.226562 72.164062 C 315.242188 73.292969 316.636719 75.230469 317.371094 77.933594 C 318.226562 81.078125 318.121094 85.257812 317.074219 90.042969 C 325.511719 92.902344 330.339844 97.289062 330.339844 102.117188 C 330.339844 106.941406 325.511719 111.332031 317.074219 114.191406 C 318.121094 118.972656 318.222656 123.152344 317.371094 126.296875 C 316.636719 129 315.242188 130.941406 313.226562 132.066406 C 312.019531 132.742188 310.640625 133.082031 309.128906 133.082031 C 305.246094 133.082031 300.378906 130.703125 295.386719 126.375 C 290.398438 130.707031 285.527344 133.089844 281.648438 133.089844 Z M 277.101562 115.207031 C 276.226562 119.324219 276.125 122.839844 276.820312 125.394531 C 277.300781 127.164062 278.132812 128.390625 279.292969 129.039062 C 279.960938 129.410156 280.753906 129.601562 281.648438 129.601562 C 284.652344 129.601562 288.605469 127.609375 292.816406 123.984375 C 290.707031 121.890625 288.644531 119.515625 286.683594 116.925781 C 283.296875 116.5625 280.074219 115.984375 277.101562 115.207031 Z M 297.957031 123.984375 C 302.167969 127.605469 306.125 129.59375 309.128906 129.59375 C 310.023438 129.59375 310.8125 129.40625 311.480469 129.03125 C 312.640625 128.382812 313.46875 127.160156 313.949219 125.398438 C 314.644531 122.835938 314.546875 119.324219 313.667969 115.207031 C 310.695312 115.984375 307.472656 116.5625 304.082031 116.925781 C 302.125 119.519531 300.066406 121.890625 297.957031 123.984375 Z M 291.464844 117.289062 C 292.75 118.839844 294.0625 120.285156 295.386719 121.597656 C 296.707031 120.285156 298.023438 118.839844 299.308594 117.289062 C 297.988281 117.351562 296.671875 117.382812 295.386719 117.382812 C 294.097656 117.382812 292.785156 117.351562 291.464844 117.289062 Z M 288.617188 113.613281 C 290.824219 113.800781 293.101562 113.894531 295.386719 113.894531 C 297.675781 113.894531 299.949219 113.800781 302.152344 113.613281 C 303.46875 111.796875 304.722656 109.890625 305.882812 107.949219 C 307.003906 106.066406 308.058594 104.105469 309.019531 102.117188 C 308.0625 100.128906 307.007812 98.167969 305.882812 96.285156 C 304.726562 94.347656 303.472656 92.441406 302.152344 90.617188 C 299.949219 90.433594 297.675781 90.339844 295.386719 90.339844 C 293.097656 90.339844 290.820312 90.433594 288.621094 90.617188 C 287.300781 92.4375 286.046875 94.34375 284.886719 96.285156 C 283.761719 98.167969 282.707031 100.128906 281.75 102.117188 C 282.707031 104.101562 283.761719 106.0625 284.886719 107.949219 C 286.039062 109.882812 287.292969 111.785156 288.617188 113.613281 Z M 310.867188 106.285156 C 310.242188 107.460938 309.59375 108.609375 308.933594 109.71875 C 308.265625 110.835938 307.554688 111.957031 306.820312 113.0625 C 308.921875 112.746094 310.929688 112.335938 312.8125 111.84375 C 312.289062 110.054688 311.636719 108.191406 310.867188 106.285156 Z M 277.957031 111.839844 C 279.839844 112.332031 281.847656 112.742188 283.945312 113.0625 C 283.207031 111.949219 282.496094 110.828125 281.835938 109.71875 C 281.175781 108.613281 280.527344 107.460938 279.902344 106.289062 C 279.136719 108.183594 278.484375 110.046875 277.957031 111.839844 Z M 312.921875 102.117188 C 314.273438 105.074219 315.375 108 316.203125 110.820312 C 322.753906 108.546875 326.800781 105.234375 326.800781 102.117188 C 326.800781 99 322.753906 95.683594 316.203125 93.414062 C 315.378906 96.234375 314.277344 99.15625 312.921875 102.117188 Z M 274.566406 93.414062 C 268.019531 95.683594 263.972656 99 263.972656 102.117188 C 263.972656 105.234375 268.019531 108.546875 274.566406 110.820312 C 275.394531 107.996094 276.496094 105.074219 277.847656 102.117188 C 276.496094 99.164062 275.394531 96.238281 274.566406 93.414062 Z M 277.957031 92.390625 C 278.480469 94.183594 279.136719 96.046875 279.902344 97.945312 C 280.527344 96.777344 281.175781 95.625 281.835938 94.515625 C 282.5 93.398438 283.210938 92.277344 283.949219 91.167969 C 281.847656 91.488281 279.839844 91.898438 277.957031 92.390625 Z M 306.820312 91.167969 C 307.5625 92.28125 308.273438 93.40625 308.933594 94.515625 C 309.59375 95.621094 310.242188 96.773438 310.867188 97.945312 C 311.636719 96.046875 312.289062 94.183594 312.816406 92.390625 C 310.929688 91.898438 308.921875 91.488281 306.820312 91.167969 Z M 281.644531 74.632812 C 280.75 74.632812 279.960938 74.820312 279.292969 75.195312 C 278.132812 75.84375 277.300781 77.070312 276.820312 78.835938 C 276.125 81.398438 276.222656 84.914062 277.101562 89.027344 C 280.074219 88.246094 283.296875 87.667969 286.6875 87.304688 C 288.648438 84.714844 290.710938 82.34375 292.816406 80.25 C 288.605469 76.625 284.648438 74.632812 281.644531 74.632812 Z M 304.085938 87.304688 C 307.472656 87.667969 310.695312 88.246094 313.671875 89.023438 C 314.546875 84.910156 314.648438 81.394531 313.949219 78.835938 C 313.46875 77.070312 312.640625 75.847656 311.480469 75.199219 C 310.8125 74.828125 310.023438 74.636719 309.125 74.636719 C 306.125 74.636719 302.171875 76.628906 297.960938 80.25 C 300.066406 82.34375 302.125 84.714844 304.085938 87.304688 Z M 295.386719 86.847656 C 296.671875 86.847656 297.988281 86.882812 299.308594 86.941406 C 298.023438 85.394531 296.710938 83.949219 295.390625 82.636719 C 294.0625 83.953125 292.75 85.398438 291.464844 86.941406 C 292.785156 86.882812 294.101562 86.847656 295.386719 86.847656 Z M 295.386719 86.847656 "/>
</g>
<g clip-path="url(#clip12)" clip-rule="nonzero">
<path style=" stroke:none;fill-rule:nonzero;fill:rgb(30.589294%,47.839355%,70.979309%);fill-opacity:1;" d="M 281.644531 71.578125 C 285.621094 71.578125 290.492188 74.117188 295.390625 78.441406 C 300.289062 74.121094 305.152344 71.585938 309.128906 71.585938 C 310.5625 71.585938 311.871094 71.910156 313.007812 72.546875 C 314.917969 73.609375 316.242188 75.460938 316.941406 78.046875 C 317.894531 81.464844 317.695312 85.671875 316.558594 90.328125 C 324.71875 93.015625 329.898438 97.257812 329.898438 102.117188 C 329.898438 106.972656 324.71875 111.214844 316.558594 113.902344 C 317.746094 118.941406 317.945312 123.261719 316.941406 126.1875 C 316.238281 128.769531 314.917969 130.621094 313.011719 131.6875 C 311.871094 132.324219 310.832031 132.648438 309.398438 132.648438 C 309.398438 132.648438 309.03125 132.648438 309.027344 132.648438 C 305.054688 132.648438 300.285156 130.109375 295.386719 125.792969 C 290.488281 130.117188 285.621094 132.652344 281.648438 132.652344 C 280.210938 132.652344 278.90625 132.328125 277.765625 131.695312 C 275.855469 130.625 274.53125 128.773438 273.828125 126.183594 C 272.777344 122.941406 272.988281 118.679688 274.214844 113.902344 C 266.054688 111.214844 260.875 106.972656 260.875 102.117188 C 260.875 97.257812 266.054688 93.019531 274.210938 90.328125 C 273.605469 87.660156 273.214844 85.183594 273.203125 82.921875 C 273.191406 81.140625 273.4375 79.480469 273.828125 78.046875 C 274.53125 75.460938 275.855469 73.605469 277.765625 72.539062 C 278.902344 71.902344 280.207031 71.578125 281.644531 71.578125 M 276.765625 89.566406 C 279.84375 88.734375 283.261719 88.101562 286.929688 87.71875 C 289.035156 84.917969 291.242188 82.402344 293.464844 80.230469 C 289.152344 76.4375 284.953125 74.195312 281.644531 74.195312 C 280.671875 74.195312 279.808594 74.402344 279.074219 74.816406 C 277.808594 75.523438 276.90625 76.839844 276.394531 78.722656 C 275.632812 81.515625 275.804688 85.292969 276.765625 89.566406 M 314.003906 89.566406 C 314.964844 85.292969 315.136719 81.515625 314.378906 78.722656 C 313.867188 76.839844 312.964844 75.527344 311.699219 74.820312 C 310.964844 74.410156 310.097656 74.203125 309.128906 74.203125 C 305.820312 74.203125 301.625 76.441406 297.3125 80.230469 C 299.535156 82.402344 301.738281 84.917969 303.84375 87.71875 C 307.511719 88.101562 310.929688 88.730469 314.003906 89.566406 M 290.5 87.429688 C 292.09375 87.335938 293.691406 87.257812 295.355469 87.257812 C 297.019531 87.257812 298.679688 87.339844 300.273438 87.429688 C 298.671875 85.441406 297.03125 83.625 295.386719 82.019531 C 293.746094 83.625 292.101562 85.441406 290.5 87.429688 M 295.386719 114.328125 C 297.832031 114.328125 300.167969 114.222656 302.394531 114.03125 C 303.738281 112.183594 305.039062 110.222656 306.261719 108.167969 C 307.460938 106.164062 308.542969 104.132812 309.511719 102.117188 C 308.542969 100.097656 307.460938 98.070312 306.261719 96.066406 C 305.039062 94.011719 303.738281 92.050781 302.394531 90.203125 C 300.171875 90.007812 297.832031 89.902344 295.386719 89.902344 C 292.941406 89.902344 290.601562 90.007812 288.378906 90.203125 C 287.03125 92.050781 285.730469 94.011719 284.507812 96.0625 C 283.308594 98.070312 282.226562 100.097656 281.257812 102.117188 C 282.226562 104.136719 283.308594 106.164062 284.503906 108.167969 C 285.730469 110.222656 287.03125 112.183594 288.375 114.03125 C 290.601562 114.222656 292.941406 114.328125 295.386719 114.328125 M 310.914062 98.988281 C 311.910156 96.625 312.734375 94.304688 313.363281 92.082031 C 311.101562 91.472656 308.605469 90.964844 305.902344 90.59375 C 306.8125 91.925781 307.699219 93.308594 308.550781 94.738281 C 309.394531 96.148438 310.179688 97.570312 310.914062 98.988281 M 279.855469 98.988281 C 280.589844 97.570312 281.375 96.148438 282.214844 94.738281 C 283.070312 93.308594 283.957031 91.925781 284.867188 90.59375 C 282.164062 90.964844 279.667969 91.472656 277.410156 92.085938 C 278.039062 94.304688 278.859375 96.625 279.855469 98.988281 M 315.90625 111.382812 C 323.054688 108.996094 327.246094 105.488281 327.246094 102.117188 C 327.246094 98.742188 323.054688 95.238281 315.90625 92.851562 C 315.0625 95.820312 313.898438 98.941406 312.4375 102.117188 C 313.898438 105.289062 315.0625 108.410156 315.90625 111.382812 M 274.867188 111.382812 C 275.707031 108.414062 276.871094 105.289062 278.332031 102.117188 C 276.871094 98.945312 275.707031 95.820312 274.863281 92.851562 C 267.71875 95.238281 263.53125 98.746094 263.53125 102.117188 C 263.53125 105.488281 267.71875 108.996094 274.867188 111.382812 M 305.902344 113.636719 C 308.605469 113.269531 311.101562 112.761719 313.363281 112.148438 C 312.734375 109.929688 311.910156 107.609375 310.914062 105.246094 C 310.179688 106.664062 309.394531 108.082031 308.550781 109.496094 C 307.699219 110.925781 306.8125 112.304688 305.902344 113.636719 M 284.863281 113.636719 C 283.953125 112.304688 283.070312 110.925781 282.214844 109.496094 C 281.375 108.085938 280.589844 106.664062 279.855469 105.25 C 278.859375 107.609375 278.039062 109.929688 277.410156 112.148438 C 279.667969 112.761719 282.164062 113.265625 284.863281 113.636719 M 281.648438 130.035156 C 284.957031 130.035156 289.152344 127.792969 293.464844 124.003906 C 291.238281 121.832031 289.035156 119.3125 286.925781 116.511719 C 283.257812 116.128906 279.84375 115.5 276.769531 114.667969 C 275.808594 118.9375 275.636719 122.714844 276.394531 125.507812 C 276.90625 127.394531 277.808594 128.707031 279.074219 129.417969 C 279.808594 129.828125 280.675781 130.035156 281.648438 130.035156 M 309.128906 130.03125 C 310.101562 130.03125 310.964844 129.824219 311.699219 129.410156 C 312.964844 128.703125 313.863281 127.390625 314.375 125.507812 C 315.136719 122.714844 314.960938 118.9375 314.003906 114.667969 C 310.925781 115.5 307.511719 116.128906 303.84375 116.511719 C 301.738281 119.3125 299.53125 121.832031 297.3125 124.003906 C 301.621094 127.789062 305.820312 130.027344 309.128906 130.03125 M 295.386719 122.214844 C 297.03125 120.605469 298.671875 118.789062 300.273438 116.800781 C 298.679688 116.894531 297.125 117.09375 295.460938 117.09375 C 293.796875 117.09375 292.089844 116.894531 290.496094 116.800781 C 292.097656 118.792969 293.742188 120.609375 295.386719 122.214844 M 281.332031 70.773438 C 279.738281 70.773438 278.601562 71.066406 277.328125 71.777344 C 275.207031 72.964844 273.738281 75 272.972656 77.820312 C 272.125 80.949219 272.199219 85.0625 273.183594 89.757812 C 264.785156 92.683594 259.988281 97.164062 259.988281 102.117188 C 259.988281 107.066406 264.785156 111.546875 273.183594 114.476562 C 272.199219 119.167969 272.125 123.28125 272.976562 126.410156 C 273.742188 129.230469 275.207031 131.265625 277.328125 132.453125 C 278.605469 133.164062 280.136719 133.46875 281.726562 133.46875 C 285.695312 133.46875 290.355469 131.257812 295.386719 126.953125 C 300.417969 131.253906 305.15625 133.519531 309.125 133.519531 C 310.71875 133.519531 312.171875 133.160156 313.445312 132.449219 C 315.566406 131.261719 317.03125 129.230469 317.796875 126.414062 C 318.644531 123.28125 318.574219 119.167969 317.589844 114.476562 C 325.988281 111.546875 330.785156 107.066406 330.785156 102.117188 C 330.785156 97.164062 325.988281 92.683594 317.589844 89.753906 C 318.574219 85.0625 318.648438 80.949219 317.796875 77.820312 C 317.03125 75 315.566406 72.96875 313.445312 71.785156 C 312.171875 71.074219 310.71875 70.714844 309.125 70.714844 C 305.15625 70.714844 300.417969 72.980469 295.390625 77.28125 C 290.355469 72.976562 285.597656 70.769531 281.625 70.769531 Z M 277.441406 88.488281 C 277.03125 86.460938 276.757812 84.558594 276.742188 82.894531 C 276.730469 81.394531 276.9375 80.085938 277.246094 78.949219 C 277.695312 77.296875 278.457031 76.164062 279.511719 75.574219 C 280.109375 75.238281 280.839844 75.011719 281.65625 75.011719 C 284.46875 75.011719 288.175781 76.910156 292.171875 80.273438 C 290.207031 82.257812 288.285156 84.480469 286.449219 86.890625 C 283.277344 87.242188 280.253906 87.777344 277.441406 88.488281 Z M 298.605469 80.277344 C 302.601562 76.914062 306.316406 75.074219 309.125 75.074219 C 309.945312 75.074219 310.664062 75.246094 311.261719 75.578125 C 312.316406 76.167969 313.074219 77.300781 313.523438 78.949219 C 314.296875 81.40625 314.195312 84.675781 313.332031 88.484375 C 310.519531 87.777344 307.496094 87.242188 304.324219 86.894531 C 302.488281 84.480469 300.570312 82.261719 298.605469 80.277344 Z M 292.441406 86.464844 C 293.414062 85.332031 294.398438 84.257812 295.386719 83.257812 C 296.378906 84.257812 297.363281 85.332031 298.332031 86.464844 C 297.339844 86.429688 296.355469 86.414062 295.386719 86.414062 C 294.417969 86.414062 293.433594 86.429688 292.441406 86.464844 Z M 288.859375 91.035156 C 290.988281 90.863281 293.183594 90.738281 295.386719 90.738281 C 297.589844 90.738281 299.785156 90.863281 301.910156 91.035156 C 303.179688 92.796875 304.386719 94.636719 305.5 96.507812 C 306.582031 98.320312 307.601562 100.203125 308.53125 102.117188 C 307.601562 104.027344 306.582031 105.914062 305.5 107.726562 C 304.382812 109.597656 303.179688 111.433594 301.910156 113.195312 C 299.785156 113.371094 297.589844 113.601562 295.386719 113.601562 C 293.179688 113.601562 290.988281 113.367188 288.859375 113.195312 C 287.589844 111.433594 286.382812 109.597656 285.265625 107.726562 C 284.1875 105.914062 283.167969 104.027344 282.238281 102.117188 C 283.167969 100.203125 284.1875 98.316406 285.269531 96.503906 C 286.382812 94.636719 287.59375 92.796875 288.859375 91.035156 Z M 310.804688 96.902344 C 310.320312 96.015625 309.820312 95.140625 309.316406 94.292969 C 308.808594 93.449219 308.28125 92.601562 307.734375 91.757812 C 309.304688 92.019531 310.820312 92.335938 312.261719 92.699219 C 311.847656 94.066406 311.359375 95.472656 310.804688 96.902344 Z M 278.507812 92.699219 C 279.953125 92.335938 281.464844 92.019531 283.035156 91.757812 C 282.488281 92.601562 281.960938 93.449219 281.453125 94.292969 C 280.949219 95.140625 280.453125 96.015625 279.964844 96.902344 C 279.410156 95.472656 278.921875 94.066406 278.507812 92.699219 Z M 313.410156 102.117188 C 314.660156 99.355469 315.699219 96.625 316.496094 93.980469 C 322.605469 96.175781 326.359375 99.253906 326.359375 102.117188 C 326.359375 104.976562 322.605469 108.054688 316.496094 110.253906 C 315.695312 107.605469 314.660156 104.875 313.410156 102.117188 Z M 274.273438 110.253906 C 268.167969 108.054688 264.414062 104.976562 264.414062 102.117188 C 264.414062 99.257812 268.167969 96.179688 274.273438 93.980469 C 275.074219 96.628906 276.109375 99.359375 277.359375 102.117188 C 276.109375 104.875 275.074219 107.605469 274.273438 110.253906 Z M 307.734375 112.476562 C 308.28125 111.632812 308.808594 110.785156 309.3125 109.9375 C 309.820312 109.089844 310.320312 108.21875 310.804688 107.328125 C 311.359375 108.761719 311.847656 110.167969 312.261719 111.535156 C 310.820312 111.898438 309.304688 112.214844 307.734375 112.476562 Z M 278.511719 111.535156 C 278.921875 110.167969 279.410156 108.761719 279.964844 107.332031 C 280.449219 108.21875 280.949219 109.09375 281.453125 109.9375 C 281.957031 110.785156 282.484375 111.632812 283.035156 112.476562 C 281.464844 112.210938 279.953125 111.898438 278.511719 111.535156 Z M 281.648438 129.164062 C 280.828125 129.164062 280.113281 128.992188 279.511719 128.65625 C 278.460938 128.066406 277.699219 126.933594 277.25 125.28125 C 276.515625 122.800781 276.597656 119.53125 277.441406 115.746094 C 280.253906 116.453125 283.277344 116.992188 286.445312 117.335938 C 288.28125 119.75 290.203125 121.972656 292.171875 123.957031 C 288.175781 127.320312 284.460938 129.164062 281.648438 129.164062 Z M 304.324219 117.339844 C 307.496094 116.992188 310.519531 116.457031 313.328125 115.746094 C 314.308594 119.882812 314.382812 123.175781 313.523438 125.285156 C 313.074219 126.929688 312.316406 128.066406 311.261719 128.652344 C 310.664062 128.988281 309.945312 129.15625 309.128906 129.15625 L 309.128906 130.027344 L 309.128906 129.15625 C 306.3125 129.15625 302.597656 127.316406 298.605469 123.957031 C 300.570312 121.972656 302.488281 119.753906 304.324219 117.339844 Z M 295.386719 120.976562 C 294.394531 119.976562 293.410156 118.902344 292.441406 117.765625 C 293.429688 117.800781 294.417969 117.820312 295.386719 117.820312 C 296.355469 117.820312 297.339844 117.800781 298.332031 117.765625 C 297.363281 118.902344 296.378906 119.976562 295.386719 120.976562 Z M 295.386719 120.976562 "/>
</g>
<g clip-path="url(#clip13)" clip-rule="nonzero">
<path style=" stroke:none;fill-rule:nonzero;fill:rgb(58.428955%,70.588684%,69.40918%);fill-opacity:1;" d="M 608.847656 195.476562 C 606.480469 195.445312 604.109375 195.3125 601.742188 195.363281 C 597.019531 195.464844 592.328125 196.03125 587.894531 197.714844 C 586.71875 198.164062 585.617188 198.390625 584.515625 198.394531 C 583.410156 198.390625 582.3125 198.164062 581.132812 197.714844 C 576.699219 196.03125 572.011719 195.464844 567.285156 195.363281 C 564.917969 195.3125 562.546875 195.445312 560.179688 195.476562 C 559.367188 195.484375 558.996094 195.789062 559.015625 196.679688 C 559.039062 197.769531 559.316406 198.6875 559.777344 199.710938 C 560.570312 201.476562 560.691406 203.414062 561.082031 205.328125 C 561.652344 208.105469 562.214844 210.019531 564.96875 212.226562 C 567.5625 214.371094 578.171875 216.597656 581.457031 206.710938 C 582.128906 204.429688 582.210938 204.285156 582.601562 203.082031 C 582.886719 202.203125 583.558594 201.871094 584.429688 201.847656 C 584.453125 201.847656 584.480469 201.851562 584.503906 201.851562 C 584.507812 201.851562 584.511719 201.851562 584.515625 201.851562 C 584.519531 201.851562 584.523438 201.851562 584.527344 201.851562 C 584.550781 201.851562 584.574219 201.847656 584.601562 201.847656 C 585.46875 201.871094 586.140625 202.203125 586.425781 203.082031 C 586.820312 204.285156 586.898438 204.429688 587.570312 206.710938 C 590.859375 216.597656 601.464844 214.371094 604.0625 212.226562 C 606.816406 210.019531 607.375 208.105469 607.945312 205.328125 C 608.335938 203.414062 608.460938 201.476562 609.25 199.710938 C 609.710938 198.6875 609.988281 197.769531 610.015625 196.679688 C 610.035156 195.789062 609.664062 195.484375 608.847656 195.476562 Z M 580.707031 203.289062 C 580.5 205.683594 577.960938 215.460938 568.144531 212.507812 C 564.015625 211.195312 560.765625 205.113281 563.0625 200.417969 C 565.355469 195.726562 573.625 197.164062 576.953125 198.125 C 579.445312 198.847656 580.816406 200.707031 580.707031 203.289062 Z M 600.882812 212.507812 C 591.070312 215.460938 588.527344 205.683594 588.324219 203.289062 C 588.214844 200.707031 589.582031 198.847656 592.078125 198.125 C 595.40625 197.164062 603.671875 195.726562 605.96875 200.417969 C 608.261719 205.113281 605.015625 211.195312 600.882812 212.507812 Z M 600.882812 212.507812 "/>
</g>
<path style=" stroke:none;fill-rule:nonzero;fill:rgb(70.588684%,83.918762%,82.749939%);fill-opacity:1;" d="M 561.421875 197.078125 C 561.421875 197.195312 561.378906 197.296875 561.296875 197.382812 C 561.210938 197.46875 561.109375 197.511719 560.992188 197.511719 C 560.871094 197.511719 560.773438 197.46875 560.6875 197.382812 C 560.605469 197.296875 560.5625 197.195312 560.5625 197.078125 C 560.5625 196.957031 560.605469 196.855469 560.6875 196.769531 C 560.773438 196.6875 560.871094 196.644531 560.992188 196.644531 C 561.109375 196.644531 561.210938 196.6875 561.296875 196.769531 C 561.378906 196.855469 561.421875 196.957031 561.421875 197.078125 Z M 561.421875 197.078125 "/>
<path style=" stroke:none;fill-rule:nonzero;fill:rgb(70.588684%,83.918762%,82.749939%);fill-opacity:1;" d="M 561.421875 198.453125 C 561.421875 198.570312 561.378906 198.671875 561.296875 198.757812 C 561.210938 198.84375 561.109375 198.886719 560.992188 198.886719 C 560.871094 198.886719 560.773438 198.84375 560.6875 198.757812 C 560.605469 198.671875 560.5625 198.570312 560.5625 198.453125 C 560.5625 198.332031 560.605469 198.230469 560.6875 198.148438 C 560.773438 198.0625 560.871094 198.019531 560.992188 198.019531 C 561.109375 198.019531 561.210938 198.0625 561.296875 198.148438 C 561.378906 198.230469 561.421875 198.332031 561.421875 198.453125 Z M 561.421875 198.453125 "/>
<path style=" stroke:none;fill-rule:nonzero;fill:rgb(70.588684%,83.918762%,82.749939%);fill-opacity:1;" d="M 608.445312 197.078125 C 608.445312 197.195312 608.402344 197.296875 608.320312 197.382812 C 608.234375 197.46875 608.132812 197.511719 608.015625 197.511719 C 607.898438 197.511719 607.796875 197.46875 607.710938 197.382812 C 607.628906 197.296875 607.585938 197.195312 607.585938 197.078125 C 607.585938 196.957031 607.628906 196.855469 607.710938 196.769531 C 607.796875 196.6875 607.898438 196.644531 608.015625 196.644531 C 608.132812 196.644531 608.234375 196.6875 608.320312 196.769531 C 608.402344 196.855469 608.445312 196.957031 608.445312 197.078125 Z M 608.445312 197.078125 "/>
<path style=" stroke:none;fill-rule:nonzero;fill:rgb(70.588684%,83.918762%,82.749939%);fill-opacity:1;" d="M 608.445312 198.453125 C 608.445312 198.570312 608.402344 198.671875 608.320312 198.757812 C 608.234375 198.84375 608.132812 198.886719 608.015625 198.886719 C 607.898438 198.886719 607.796875 198.84375 607.710938 198.757812 C 607.628906 198.671875 607.585938 198.570312 607.585938 198.453125 C 607.585938 198.332031 607.628906 198.230469 607.710938 198.148438 C 607.796875 198.0625 607.898438 198.019531 608.015625 198.019531 C 608.132812 198.019531 608.234375 198.0625 608.320312 198.148438 C 608.402344 198.230469 608.445312 198.332031 608.445312 198.453125 Z M 608.445312 198.453125 "/>
</g>
</svg>
